<?xml version="1.0" standalone="no"?>
<!DOCTYPE svg PUBLIC "-//W3C//DTD SVG 1.1//EN" "http://www.w3.org/Graphics/SVG/1.1/DTD/svg11.dtd" >
<svg xmlns="http://www.w3.org/2000/svg" xmlns:xlink="http://www.w3.org/1999/xlink" version="1.1">
<metadata>
Created by FontForge 20170731 at Wed Mar 30 08:18:57 2022
 By Aleksey,,,
</metadata>
<defs>
<font id="LOREFREERegular" horiz-adv-x="0" >
  <font-face 
    font-family="LORE FREE"
    font-weight="400"
    font-stretch="normal"
    units-per-em="2048"
    panose-1="0 0 0 0 0 0 0 0 0 0"
    ascent="1638"
    descent="-410"
    cap-height="1340"
    bbox="36.7465 -304 2151 1682.46"
    underline-thickness="102"
    underline-position="-307"
    unicode-range="U+000A-F009"
  />
<missing-glyph horiz-adv-x="1079" 
d="M102 1434h875v-1434h-875v1434zM160 1393l379 -633l381 633h-760zM514 717l-369 614v-1231zM541 674l-379 -631h758zM565 717l371 -621v1239z" />
    <glyph glyph-name=".notdef" horiz-adv-x="1079" 
d="M102 1434h875v-1434h-875v1434zM160 1393l379 -633l381 633h-760zM514 717l-369 614v-1231zM541 674l-379 -631h758zM565 717l371 -621v1239z" />
    <glyph glyph-name=".null" 
 />
    <glyph glyph-name=".null" 
 />
    <glyph glyph-name="nonmarkingreturn" horiz-adv-x="682" 
 />
    <glyph glyph-name="controlLF" unicode="&#xa;" 
 />
    <glyph glyph-name="controlCR" unicode="&#xd;" 
 />
    <glyph glyph-name="space" unicode=" " horiz-adv-x="874" 
 />
    <glyph glyph-name="exclam" unicode="!" horiz-adv-x="716" 
d="M386 873q4 -65 4 -193q0 -132 -13 -232q-7 -51 -35 -77q-33 -30 -77 -28q-47 2 -77 35q-34 38 -28 77q8 57 12 203q3 124 -6 249q-9 84 -45 248q-10 44 14.5 82.5t67.5 48.5q8 2 24 2q37 0 68 -23.5t39 -60.5q45 -195 52 -331zM265 218q44 0 75.5 -34.5t29.5 -78.5
q-1 -45 -34.5 -75t-78.5 -30q-44 0 -75.5 34.5t-29.5 78.5q1 45 34.5 75t78.5 30z" />
    <glyph glyph-name="numbersign" unicode="#" horiz-adv-x="1376" 
d="M1210 658q31 -20 39 -54q8 -37 -12 -68q-23 -36 -54 -39q-53 -6 -158 -17t-157 -17q-23 -109 -55 -272q-3 -14 -7 -49q-5 -39 -28 -61q-27 -26 -64 -24q-36 2 -61 28q-29 30 -24 64q9 75 54 290q-85 -12 -168 -33q-36 -161 -66 -313q-6 -31 -43 -52q-33 -17 -69 -6
q-34 11 -51 42q-15 28 -6 69q2 12 42 199q-48 -18 -71 -27q-40 -16 -68 -7q-34 11 -52 43q-17 32 -6 68q12 40 42 52q107 43 199 73q1 3 2 11.5t2 11.5q3 13 8.5 38.5t8.5 38.5q-46 -14 -159 -55q-33 -12 -68 11q-31 20 -39 55q-8 37 12 68q15 24 54 38q98 35 170 59
q14 5 41.5 12.5t31.5 8.5q5 23 14.5 69.5t14.5 69.5q4 21 11 63.5t10 63.5q1 22 14 44l15 17q26 24 60 24h3q37 -2 62 -28q29 -31 23 -64q-24 -144 -38 -215q30 6 49 8q82 11 116 14q50 214 73 321q7 32 43 51q20 11 42 11q14 0 26 -4q34 -11 52 -43q15 -27 6 -69
q-18 -83 -56 -247q117 14 178 24q14 2 21 2q24 0 47 -14q31 -20 39 -54q8 -35 -11.5 -68t-54.5 -39q-82 -13 -248 -31q-2 0 -6.5 -0.5t-6.5 -0.5q-2 -11 -7 -35t-8 -35q-1 -6 -4 -17.5t-4 -17.5q79 8 237 26q7 2 21 2t26 -4q4 -1 11 -4.5t10 -5.5zM557 596l66 12q4 1 41 7
t57 8l15 75q1 5 3.5 15t3.5 15q-5 0 -17.5 -2t-17.5 -2q-23 -3 -64 -11.5t-52 -10.5q-2 0 -6.5 -1t-6.5 -1q-3 -17 -11 -51.5t-11 -51.5v-1z" />
    <glyph glyph-name="dollar" unicode="$" horiz-adv-x="1019" 
d="M682 1206q-25 0 -58 -5q-3 -36 -10 -107.5t-10 -107.5q107 -29 158 -60t81 -76q40 -56 29.5 -124t-75.5 -118q-77 -58 -224 -81q-2 -1 -8 -1t-8 -1q0 -1 -0.5 -5t-0.5 -5q-12 -108 -12 -137q0 -37 -35 -64q-30 -26 -69 -21q-38 5 -64 35q-20 25 -20 69q0 47 9 115h-30
q-7 0 -28 -0.5t-31.5 0t-27.5 1.5t-31 3.5t-27 7.5q-28 10 -48.5 31.5t-22.5 48.5t17 52t48 38q41 18 120 16q14 0 41 -1t41 -1q3 23 7.5 69.5t6.5 69.5q-22 8 -66 26q-91 37 -128 78q-44 54 -41.5 123t44.5 127q69 94 232 147l9 3q12 110 26 189q6 40 35 64q18 15 45 20
q16 2 24 1q38 -4 64 -35t20 -69q-10 -59 -18 -124l48 9q76 14 115 8q46 -8 74.5 -39.5t13.5 -76.5q-10 -31 -41 -54q-23 -16 -56.5 -25t-54 -10.5t-63.5 -2.5zM600 730q18 6 18 24.5t-18 23.5q-3 1 -8.5 2.5t-8.5 2.5q-1 -10 -3 -29.5t-3 -29.5q16 4 23 6zM419 1043l9 90
q-29 -20 -47 -45q-12 -17 7 -29q13 -8 31 -16z" />
    <glyph glyph-name="percent" unicode="%" horiz-adv-x="1599" 
d="M492 680q-65 -16 -131 -6.5t-117.5 40t-87 78.5t-37.5 110t30 134q30 63 91 103t130 41q112 1 228 -98q65 -56 88 -112q13 -30 14 -59q5 -69 -34 -125q-53 -78 -174 -106zM332 988q-50 -77 -7 -129q34 -40 93 -36q66 5 95 63l4 8q1 2 1 5q6 44 -30 75.5t-75 36.5
q-60 9 -81 -23zM1271 1316q23 -19 28 -49t-18 -71q-61 -90 -305.5 -505.5t-365.5 -655.5q-3 -6 -15.5 -32.5t-18.5 -36.5t-20 -25t-30 -21q-38 -15 -64.5 -5t-41 33t-14 56t16.5 64q305 606 690 1176q70 103 133 85q15 -5 25 -13zM1478 318q19 -111 -59 -206t-198 -109
q-85 -10 -153 16t-104 77.5t-43 122.5t30 151q29 66 83 115.5t121 72.5q70 25 146.5 -20t129.5 -115q38 -52 47 -105zM1304 262q7 36 -32 75q-51 51 -98 32q-18 -8 -36 -29q-37 -47 -37 -93.5t34.5 -62.5t97.5 8q59 25 70 63q1 2 1 7z" />
    <glyph glyph-name="ampersand" unicode="&#x26;" horiz-adv-x="1089" 
d="M950 906q24 -29 20 -65t-31 -60q-28 -25 -85 -77t-86 -77q-18 -17 -105 -91q6 -11 18.5 -32.5t19.5 -32.5q16 -28 3 -67q-13 -36 -45 -51q-33 -16 -68 -3q-29 10 -50 46q-2 5 -8 14t-8 13l-69 -54q-13 -9 -39 -26.5t-39 -26.5q-57 -37 -94 -46q-27 -7 -48 -6q-15 1 -47 9
q-13 5 -29 16q-18 12 -29 35q-7 16 -11 29q0 4 -0.5 11.5t-0.5 11.5q-1 27 11 79q7 29 28 101q28 96 54 152q18 39 27.5 57.5t31 47t44.5 44.5q66 43 119 17q23 -8 38 -26l8 -8q4 -5 8.5 -11.5t10 -15t8.5 -12.5q31 -49 35 -56q3 -5 14 -23.5t17 -28.5q5 5 15 13.5t15 12.5
l222 198q23 20 56 20q43 0 69 -31zM432 575l3 3q-1 0 -1 1t-1 2q-8 14 -24 41.5t-24 40.5q-31 -64 -59 -161q0 -2 -1 -6t-2 -5q6 4 16.5 12t15.5 12q52 40 77 60z" />
    <glyph glyph-name="parenleft" unicode="(" horiz-adv-x="751" 
d="M606 113q29 -31 27 -73.5t-33 -71.5t-73.5 -27.5t-71.5 32.5q-62 65 -145 190q-92 139 -141.5 323.5t-50 371.5t56 369.5t166.5 310.5q22 27 87 89q28 27 70 27q45 0 76 -33q29 -32 26.5 -73.5t-32.5 -71.5q-65 -63 -77 -76q-86 -116 -126.5 -276.5t-32.5 -322.5
t57.5 -319t134.5 -270q52 -68 82 -99z" />
    <glyph glyph-name="parenright" unicode=")" horiz-adv-x="780" 
d="M234 1516q-26 33 -20.5 76t38.5 69t75.5 20.5t68.5 -38.5q50 -62 128 -202q80 -146 114 -333.5t19.5 -374t-86 -363.5t-191.5 -296q-20 -20 -95 -81q-30 -24 -72 -21q-46 3 -73 38q-26 34 -20.5 76t38.5 69q70 58 83 70q127 144 178.5 364t20.5 440t-132 381
q-37 59 -74 106z" />
    <glyph glyph-name="asterisk" unicode="*" horiz-adv-x="868" 
d="M748 1363q7 -29 -8 -51q-14 -21 -41 -29q-78 -24 -117 -38q57 -35 58 -36q15 -7 25 -22q1 -3 3.5 -8t4.5 -7q10 -27 -3 -52q-12 -23 -38 -33q-31 -10 -51 3q-30 20 -40 26q4 -28 8 -88q2 -25 -21 -46q-20 -19 -48 -17t-46 21q-11 13 -16 30v8.5t-1 8.5q0 3 -1 8t-1 7
q-1 4 -2 12.5t-1 13.5q-4 -10 -13.5 -28t-14.5 -28q-13 -26 -35 -35q-26 -11 -52 0q-24 11 -35.5 37.5t0.5 50.5q6 11 17 33t17 33q-54 -20 -80 -31q-30 -12 -51 -5q-25 8 -38 32q-13 25 -5 51q10 30 32 39t109 43q-8 4 -24.5 11.5t-24.5 10.5q-24 10 -33.5 38t2.5 51
q17 33 52 36q19 2 37 -6q28 -12 58 -26q-7 17 -20.5 52t-20.5 53q-8 15 -8 34l3 18q8 25 32 38q16 8 31 8q11 0 20 -3q30 -10 39 -32q21 -52 43 -113q9 17 26.5 50t26.5 49q13 25 36 35q14 6 32 4q13 -2 19 -5q24 -11 35 -35q12 -30 0 -52q-9 -17 -27.5 -51t-27.5 -51
q56 19 100 32q7 3 15 3q21 0 40 -15.5t24 -36.5z" />
    <glyph glyph-name="plus" unicode="+" horiz-adv-x="1478" 
d="M1130 886q14 -31 1 -68t-47 -49q-24 -8 -278 -96q4 -57 6 -114q4 -145 0 -217q-1 -32 -34 -59q-29 -23 -65 -18q-37 5 -59 33q-20 26 -18 66t2 118q-1 15 -2 41t-2 48t-2 41q-110 -40 -195 -74q-34 -14 -68.5 0t-48.5 47t-0.5 68t47.5 48q90 36 249 93q-6 60 -15 120
q-14 93 -33 197q-7 35 16 65.5t59 35.5q10 1 20 0q30 -2 52.5 -23t27.5 -52q8 -47 22 -135.5t17 -103.5q1 -8 3.5 -22.5t3.5 -21.5q25 9 71 24.5t83.5 28.5t70.5 25q25 8 44 7q14 -2 25 -6q33 -14 47 -47z" />
    <glyph glyph-name="comma" unicode="," horiz-adv-x="462" 
d="M248 167q16 0 24 -2q49 -12 66 -53q16 -39 -13 -115q-12 -32 -35.5 -95t-35.5 -95q-19 -50 -36 -68q-30 -31 -74.5 -32t-77 26.5t-29.5 69.5q2 30 21 75q12 31 36.5 91.5t36.5 91.5q27 67 55 87q25 19 62 19z" />
    <glyph glyph-name="hyphen" unicode="-" horiz-adv-x="1333" 
d="M1017 678q18 -31 10 -66q-8 -38 -35 -57q-22 -16 -60 -13q-199 18 -546 -13q-32 -3 -57 21t-26 60t22 64t55 31q61 6 183 14q41 3 124 5q129 4 281 -9h3q27 -4 46 -37z" />
    <glyph glyph-name="period" unicode="." horiz-adv-x="456" 
d="M232 218q44 0 75 -34.5t29 -78.5q-1 -45 -34 -75t-78 -30q-44 0 -75.5 34.5t-29.5 78.5q1 45 34.5 75t78.5 30z" />
    <glyph glyph-name="slash" unicode="/" horiz-adv-x="1079" 
d="M854 1419q3 1 10 1q31 3 58 -14q30 -21 38 -55q6 -32 -13 -68q-58 -107 -127 -241q-10 -20 -28.5 -59t-27.5 -58q-108 -228 -245 -543q-170 -392 -227 -527q-14 -35 -44 -50q-33 -17 -68 -5q-34 12 -52 45.5t-4 66.5q49 116 149 346q153 353 249 565q114 254 277 558
q7 14 23 24.5t32 13.5z" />
    <glyph glyph-name="zero" unicode="0" horiz-adv-x="1075" 
d="M954 704q5 -65 0 -130q-20 -251 -163 -411q-74 -83 -187 -128t-218 -34q-141 15 -209 136q-58 104 -58 296q0 416 190 788q27 52 54.5 83t46.5 35h6q9 0 20 -8q8 -6 25 -23q44 -41 75 -55q16 -7 51 -14l9 -2q106 -21 186.5 -106.5t121.5 -195t50 -231.5zM740 558
q18 144 -17 280q-17 63 -59 114t-97 59q-86 11 -140 -84q-41 -73 -65 -193q-40 -209 -21 -377q7 -63 42.5 -102t88.5 -44h11q72 0 138 63t93 157q19 64 26 127z" />
    <glyph glyph-name="one" unicode="1" horiz-adv-x="481" 
d="M359 1230q11 -482 -11 -1133q-2 -39 -36 -69q-37 -31 -83 -29q-47 2 -79 34q-33 31 -31 72q22 655 11 1139q-2 33 28 61q36 34 87 34h4q47 -2 80 -33q29 -27 30 -76z" />
    <glyph glyph-name="two" unicode="2" horiz-adv-x="1169" 
d="M1048 262q11 -45 -15 -86q-11 -17 -29.5 -32t-34.5 -17l-62 -8q-223 -31 -325 -53q-21 -5 -99 -27q-35 -10 -50.5 -14.5t-47 -11.5t-51 -9t-43.5 -1.5t-42 5.5q-40 12 -65 54.5t-17 85.5q6 30 28 67.5t43.5 63t58.5 67.5q59 67 77 92t56 75q47 62 71.5 96.5t60 91.5
t58 112t35.5 113q18 80 -36 120q-24 18 -58 18q-27 0 -49 -13q-89 -53 -161 -134q-15 -18 -46.5 -46.5t-50.5 -35.5q-45 -9 -83 15t-49 69q-5 18 -2.5 43.5t13.5 38.5q50 64 96.5 113.5t110 100.5t139 82t156.5 36q120 7 183 -63q30 -34 49 -95q11 -36 16 -96
q9 -95 -18 -191q-29 -102 -69 -192t-87 -159.5t-72 -102t-63 -75.5q-24 -28 -30.5 -39.5t0.5 -24.5q9 -15 29 -12l88 14q207 43 247 48q56 8 91 -14q38 -24 49 -69z" />
    <glyph glyph-name="three" unicode="3" horiz-adv-x="1234" 
d="M1064 597q52 -61 52 -152q0 -51 -8 -80q-11 -41 -27 -62q-62 -83 -154.5 -143t-193.5 -90t-198.5 -41.5t-188.5 -5.5q-46 3 -77 36t-29 77q2 35 23 62.5t52 35.5q32 8 89 12q152 10 287 57q136 41 136 129q0 33 -20.5 57.5t-47.5 31.5q-4 1 -11 3t-13 3.5t-12 2.5l-3 1
l-66 9l-15 2q-60 9 -92 16q-38 8 -57 20q-15 9 -28 22q-16 22 -22 33q-9 16 -10 29l-1 5q-6 29 1 55q3 5 5 10q10 23 17 33q28 35 33 41q12 15 31 32l9 8q4 3 12 11t12 11q13 11 70 66q20 20 25 49t-7 55q-12 27 -37 40.5t-56 11.5q-126 -14 -236 -84q-65 -41 -113 -25
q-43 14 -63 53q-22 41 -8 84q11 36 56 65q133 85 281.5 116.5t292.5 6.5q4 0 11.5 -1t10.5 -2q27 -4 40 -8q28 -8 50 -21q11 -6 30 -25l8 -6q35 -46 44 -78q5 -21 7 -51q3 -60 -17 -106q-35 -85 -107 -169q-27 -30 -16 -70q11 -39 49 -52q50 -17 101 -43q59 -31 99 -77z" />
    <glyph glyph-name="four" unicode="4" horiz-adv-x="1116" 
d="M994 557q10 -44 -16 -84q-23 -35 -60 -43q-12 -2 -37.5 -7t-38.5 -8q-25 -5 -41 -25t-17 -46q-1 -82 -5 -253q-2 -43 -34 -72q-32 -31 -76 -29t-73.5 34t-28.5 76q1 24 2 71.5t1 70.5q0 38 -30 60q-19 14 -44 14q-15 0 -23 -3q-30 -10 -90 -32l-3 -1q-32 -11 -45.5 -15.5
t-38 -10t-43 -5t-36.5 6.5q-83 26 -94 95l-2 6q-4 12 -1 26l1 3q5 34 10 56l3 18q19 140 25 369t1 403q-2 38 34 70q36 33 83 28q33 -3 59 -26q35 -32 36 -88q1 -49 1 -263v-87q0 -62 -4 -138l-2 -35q-2 -54 -4 -79l-1 -7q-3 -38 28 -63q31 -24 68 -13q6 2 18.5 6t18.5 6
q5 1 15 5t15 5q22 7 36.5 26.5t15.5 42.5q3 136 11 221q6 62 55 92q24 14 52 13h4q58 -2 75 -34q27 -50 3 -252q-2 -15 8 -26q10 -12 24 -12h3l49 11q51 12 85 -11q39 -28 48 -67z" />
    <glyph glyph-name="five" unicode="5" horiz-adv-x="1265" 
d="M1119 1296q30 -33 28 -76t-34 -74q-18 -16 -44 -24l-39 -4q-111 -9 -335 -27q-49 -5 -155 -18l-42 -6l-51 -255l68 -3q12 0 17 -1l4 -1q72 -8 102 -19q61 -23 102 -63q19 -19 28 -30q24 -29 35 -52q33 -67 30 -121q-3 -60 -15 -93q-36 -107 -94 -176q-45 -54 -79 -79
l-5 -4q-48 -37 -78 -55q-91 -54 -159 -83q-66 -27 -122 -30q-29 -1 -94 12q-14 3 -31 18t-25 31q-21 40 -7 82q15 46 55 65q12 6 39 6h16q43 0 56 2q40 5 86 29q171 85 231 218q15 34 9 64q-7 34 -42 57t-114 10q-48 -7 -91 -26q-41 -17 -61 -16q-29 4 -40 7q-35 9 -57 50
q-13 25 -12 55q0 13 12 59l3.5 14l3.5 14l13 60q18 83 29 139q9 46 29 143.5t30 148.5q3 14 18 30t31 25q40 21 82 7q15 -4 29 -14l18 -13l22 3q127 15 224 23q103 9 309 25q14 1 34.5 -9.5t32.5 -24.5z" />
    <glyph glyph-name="six" unicode="6" horiz-adv-x="1177" 
d="M1038 469q29 -68 18 -133q-21 -129 -194 -234q-223 -136 -461 -81q-89 21 -159 93t-100 172q-56 186 24 447q83 277 262 509q49 63 83 80q20 10 48 10q49 0 80 -31q25 -24 32 -59.5t-7 -66.5q-8 -19 -45 -64l-9 -11q-92 -114 -158 -258q-18 -41 9 -74q28 -35 72 -25
q74 17 161.5 -4.5t172.5 -79.5q100 -67 147 -143q13 -21 24 -47zM798 324q19 41 3 81q-25 62 -125 101q-175 67 -263 14q-53 -32 -62 -103l-1 -3q-3 -94 63 -152q63 -55 149 -55q18 0 36 3q126 19 181 84q12 16 19 30z" />
    <glyph glyph-name="seven" unicode="7" horiz-adv-x="1236" 
d="M1102 1238q15 -30 17 -87q0 -22 -15 -59q-6 -15 -14 -31l-10 -21q-28 -59 -72 -133q-4 -7 -12 -20.5t-12 -20.5l-97 -164q-110 -185 -174 -300q-29 -52 -73 -150.5t-58 -127.5q-27 -56 -60.5 -89.5t-84.5 -31.5q-56 2 -93 42q-33 36 -35 99q0 37 14 80.5t27.5 70.5
t41.5 77l6 11q10 17 29.5 52t29.5 53q8 13 23 40t23 40l78 138q81 140 89 153l122 206l-166 -4q-87 -2 -381 -2q-49 0 -87 40q-41 42 -39 98q2 54 42.5 91.5t97.5 37.5q324 0 429 3q35 0 52 1l5 1q129 3 131 3h24h29q68 2 115 -29q35 -21 58 -67z" />
    <glyph glyph-name="eight" unicode="8" horiz-adv-x="1230" 
d="M845 711q-30 -22 -30 -60q0 -36 29 -60q36 -29 56 -54q23 -29 33 -52q21 -46 21 -57q7 -48 4 -75q-6 -48 -12 -61q-2 -5 -8 -19q-12 -28 -22 -45q-66 -105 -195 -163.5t-267 -64.5q-64 -2 -96 3l-21 3q-69 11 -97 21q-71 26 -101 95q-15 35 -17 52q-5 43 4 92
q7 40 41 100q30 55 65 97q52 63 114 126q20 20 21.5 49t-15.5 51q-30 39 -48 72l-2 3q-53 89 -57.5 185t50.5 185q119 176 306 193q186 17 344 -38q81 -27 127 -103q45 -73 38.5 -158.5t-62.5 -147.5q-9 -10 -86.5 -74.5t-116.5 -94.5zM707 355q21 52 -38 94l-3 3
q-6 4 -18 11.5t-17 10.5q-3 2 -9 5.5t-9 5.5q-35 23 -82.5 -2.5t-82 -67t-50.5 -76.5q-23 -48 6 -84q19 -22 57 -24q25 -1 62 10q98 28 146 67q10 8 15 13q16 16 23 34zM820 997q36 35 20 82t-65 53q-47 6 -68 7q-120 7 -187 -69q-83 -96 -40 -198q17 -41 61 -54
q12 -3 24 -3q31 0 55 18q90 67 91 68l75 62l20 20z" />
    <glyph glyph-name="nine" unicode="9" horiz-adv-x="1200" 
d="M1065 1072q13 -21 15 -43.5t-1.5 -39.5t-14.5 -56q-1 -5 -4.5 -17.5t-5.5 -19.5q-31 -117 -43 -355q-10 -214 1 -315q0 -4 1.5 -14t2.5 -14q8 -68 5 -97q-4 -36 -28 -63.5t-60 -35.5q-46 -11 -88 15t-55 74q-19 74 -17 239v23q2 116 4 176v21q2 48 -32 77q-29 24 -64 24
q-5 0 -17 -2q-48 -8 -111 -13q-71 -6 -151 13q-28 6 -58 20l-5 2q-51 25 -65 35q-80 62 -110 118q-29 54 -40.5 119.5t2 135.5t55.5 122q64 81 197 112q167 38 318 9q71 -14 148 -57q134 -75 206 -171l7 -10.5t8 -11.5zM779 950q20 36 5 74q-15 37 -57 61.5t-82 36.5
q-107 34 -210 -9q-38 -16 -63 -57t-20 -79q6 -42 39.5 -71.5t72 -40.5t75.5 -11q23 0 44 3q49 8 132 43q30 12 46 27q7 7 17 23h1z" />
    <glyph glyph-name="colon" unicode=":" horiz-adv-x="763" 
d="M394 671q-42 0 -75 33q-34 35 -32 82q2 45 35 76t79 31q42 0 75 -33q34 -35 32 -82q-2 -45 -35 -76t-79 -31zM399 514q42 0 75 -33q34 -35 32 -82q-1 -45 -34 -75.5t-80 -30.5q-42 0 -75 33q-34 35 -32 82q1 45 34 75.5t80 30.5z" />
    <glyph glyph-name="equal" unicode="=" horiz-adv-x="952" 
d="M813 968q23 -27 21 -63q-2 -37 -25 -62q-21 -21 -57 -24q-16 -1 -53 -5q-70 -9 -113 -16q-38 -6 -114 -22q-102 -21 -256 -63q-32 -8 -60 11t-35 54q-8 35 10 67t49 40q35 9 101.5 26t76.5 19q62 15 121 27q133 27 279 40h3q29 0 52 -29zM702 654q32 0 58 -28
q26 -27 24 -64q-2 -36 -28 -61q-23 -21 -64 -24q-102 -7 -209 -18q-116 -12 -238 -21q-34 -3 -62 29q-26 27 -24 63t29 62q14 14 39 21l24 2q123 9 246 21q196 18 202 18h3z" />
    <glyph glyph-name="question" unicode="?" horiz-adv-x="927" 
d="M808 1092q4 -47 -18 -124q-25 -84 -93 -160q-7 -8 -27 -29t-30 -33t-24 -31t-21 -37.5t-10 -38.5q-5 -10 -1.5 -44t4.5 -43.5t7.5 -43t8.5 -42.5q7 -42 -19.5 -77.5t-68.5 -42.5q-43 -7 -77.5 19t-42.5 68q-12 68 -16 120.5t1 111t28.5 111.5t65.5 100q8 8 21 21.5
t23.5 24.5t23.5 26t22.5 27.5t18 28.5t12.5 30.5t4 31t-5 32.5q-7 21 -34.5 24t-62.5 -8.5t-72 -29.5t-64.5 -34t-39.5 -26q-117 -93 -181 -12q-27 34 -22 77.5t39 70.5q153 123 304 158q93 21 159 9q52 -9 92.5 -40t61.5 -78q29 -68 33 -117zM562 210q42 0 71.5 -34.5
t27.5 -76.5q-3 -46 -35 -73q-30 -26 -76 -26q-42 0 -71.5 34.5t-27.5 76.5q3 45 35 72q31 27 76 27z" />
    <glyph glyph-name="A" unicode="A" horiz-adv-x="1265" 
d="M1142 75q14 -44 -4 -84.5t-59 -55.5q-42 -15 -86 6q-39 19 -51 55q-50 154 -76 231q-9 26 -33.5 39t-51.5 5q-292 -88 -356 -114q-32 -13 -40 -46q-10 -40 -26.5 -104.5t-24.5 -96.5q-13 -50 -45 -73q-37 -26 -80 -18q-46 8 -74 52q-23 37 -14 69l11 44q94 370 134 515
q4 17 14 51t14 51t13.5 50.5t14.5 50.5q1 5 20 82q17 70 30.5 116.5t35 98.5t45.5 82.5t59.5 50.5t78.5 20q17 0 25 -2q65 -12 127 -89q42 -53 70 -102q33 -60 67.5 -140t51.5 -126.5t52 -146.5l7 -20q82 -235 151 -451zM756 487q20 6 13 26l-12 34q-46 128 -93 232l-49 110
q-3 7 -10.5 6.5t-9.5 -7.5l-33 -116q-26 -93 -78 -281l-22 -81q-2 -5 2 -8.5t9 -2.5l81 26q79 25 167 51z" />
    <glyph glyph-name="A" unicode="&#xe5;" horiz-adv-x="1265" 
d="M1142 75q14 -44 -4 -84.5t-59 -55.5q-42 -15 -86 6q-39 19 -51 55q-50 154 -76 231q-9 26 -33.5 39t-51.5 5q-292 -88 -356 -114q-32 -13 -40 -46q-10 -40 -26.5 -104.5t-24.5 -96.5q-13 -50 -45 -73q-37 -26 -80 -18q-46 8 -74 52q-23 37 -14 69l11 44q94 370 134 515
q4 17 14 51t14 51t13.5 50.5t14.5 50.5q1 5 20 82q17 70 30.5 116.5t35 98.5t45.5 82.5t59.5 50.5t78.5 20q17 0 25 -2q65 -12 127 -89q42 -53 70 -102q33 -60 67.5 -140t51.5 -126.5t52 -146.5l7 -20q82 -235 151 -451zM756 487q20 6 13 26l-12 34q-46 128 -93 232l-49 110
q-3 7 -10.5 6.5t-9.5 -7.5l-33 -116q-26 -93 -78 -281l-22 -81q-2 -5 2 -8.5t9 -2.5l81 26q79 25 167 51z" />
    <glyph glyph-name="A" unicode="&#xe4;" horiz-adv-x="1265" 
d="M1142 75q14 -44 -4 -84.5t-59 -55.5q-42 -15 -86 6q-39 19 -51 55q-50 154 -76 231q-9 26 -33.5 39t-51.5 5q-292 -88 -356 -114q-32 -13 -40 -46q-10 -40 -26.5 -104.5t-24.5 -96.5q-13 -50 -45 -73q-37 -26 -80 -18q-46 8 -74 52q-23 37 -14 69l11 44q94 370 134 515
q4 17 14 51t14 51t13.5 50.5t14.5 50.5q1 5 20 82q17 70 30.5 116.5t35 98.5t45.5 82.5t59.5 50.5t78.5 20q17 0 25 -2q65 -12 127 -89q42 -53 70 -102q33 -60 67.5 -140t51.5 -126.5t52 -146.5l7 -20q82 -235 151 -451zM756 487q20 6 13 26l-12 34q-46 128 -93 232l-49 110
q-3 7 -10.5 6.5t-9.5 -7.5l-33 -116q-26 -93 -78 -281l-22 -81q-2 -5 2 -8.5t9 -2.5l81 26q79 25 167 51z" />
    <glyph glyph-name="A" unicode="&#xe3;" horiz-adv-x="1265" 
d="M1142 75q14 -44 -4 -84.5t-59 -55.5q-42 -15 -86 6q-39 19 -51 55q-50 154 -76 231q-9 26 -33.5 39t-51.5 5q-292 -88 -356 -114q-32 -13 -40 -46q-10 -40 -26.5 -104.5t-24.5 -96.5q-13 -50 -45 -73q-37 -26 -80 -18q-46 8 -74 52q-23 37 -14 69l11 44q94 370 134 515
q4 17 14 51t14 51t13.5 50.5t14.5 50.5q1 5 20 82q17 70 30.5 116.5t35 98.5t45.5 82.5t59.5 50.5t78.5 20q17 0 25 -2q65 -12 127 -89q42 -53 70 -102q33 -60 67.5 -140t51.5 -126.5t52 -146.5l7 -20q82 -235 151 -451zM756 487q20 6 13 26l-12 34q-46 128 -93 232l-49 110
q-3 7 -10.5 6.5t-9.5 -7.5l-33 -116q-26 -93 -78 -281l-22 -81q-2 -5 2 -8.5t9 -2.5l81 26q79 25 167 51z" />
    <glyph glyph-name="A" unicode="&#xe2;" horiz-adv-x="1265" 
d="M1142 75q14 -44 -4 -84.5t-59 -55.5q-42 -15 -86 6q-39 19 -51 55q-50 154 -76 231q-9 26 -33.5 39t-51.5 5q-292 -88 -356 -114q-32 -13 -40 -46q-10 -40 -26.5 -104.5t-24.5 -96.5q-13 -50 -45 -73q-37 -26 -80 -18q-46 8 -74 52q-23 37 -14 69l11 44q94 370 134 515
q4 17 14 51t14 51t13.5 50.5t14.5 50.5q1 5 20 82q17 70 30.5 116.5t35 98.5t45.5 82.5t59.5 50.5t78.5 20q17 0 25 -2q65 -12 127 -89q42 -53 70 -102q33 -60 67.5 -140t51.5 -126.5t52 -146.5l7 -20q82 -235 151 -451zM756 487q20 6 13 26l-12 34q-46 128 -93 232l-49 110
q-3 7 -10.5 6.5t-9.5 -7.5l-33 -116q-26 -93 -78 -281l-22 -81q-2 -5 2 -8.5t9 -2.5l81 26q79 25 167 51z" />
    <glyph glyph-name="A" unicode="&#xe1;" horiz-adv-x="1265" 
d="M1142 75q14 -44 -4 -84.5t-59 -55.5q-42 -15 -86 6q-39 19 -51 55q-50 154 -76 231q-9 26 -33.5 39t-51.5 5q-292 -88 -356 -114q-32 -13 -40 -46q-10 -40 -26.5 -104.5t-24.5 -96.5q-13 -50 -45 -73q-37 -26 -80 -18q-46 8 -74 52q-23 37 -14 69l11 44q94 370 134 515
q4 17 14 51t14 51t13.5 50.5t14.5 50.5q1 5 20 82q17 70 30.5 116.5t35 98.5t45.5 82.5t59.5 50.5t78.5 20q17 0 25 -2q65 -12 127 -89q42 -53 70 -102q33 -60 67.5 -140t51.5 -126.5t52 -146.5l7 -20q82 -235 151 -451zM756 487q20 6 13 26l-12 34q-46 128 -93 232l-49 110
q-3 7 -10.5 6.5t-9.5 -7.5l-33 -116q-26 -93 -78 -281l-22 -81q-2 -5 2 -8.5t9 -2.5l81 26q79 25 167 51z" />
    <glyph glyph-name="A" unicode="&#xe0;" horiz-adv-x="1265" 
d="M1142 75q14 -44 -4 -84.5t-59 -55.5q-42 -15 -86 6q-39 19 -51 55q-50 154 -76 231q-9 26 -33.5 39t-51.5 5q-292 -88 -356 -114q-32 -13 -40 -46q-10 -40 -26.5 -104.5t-24.5 -96.5q-13 -50 -45 -73q-37 -26 -80 -18q-46 8 -74 52q-23 37 -14 69l11 44q94 370 134 515
q4 17 14 51t14 51t13.5 50.5t14.5 50.5q1 5 20 82q17 70 30.5 116.5t35 98.5t45.5 82.5t59.5 50.5t78.5 20q17 0 25 -2q65 -12 127 -89q42 -53 70 -102q33 -60 67.5 -140t51.5 -126.5t52 -146.5l7 -20q82 -235 151 -451zM756 487q20 6 13 26l-12 34q-46 128 -93 232l-49 110
q-3 7 -10.5 6.5t-9.5 -7.5l-33 -116q-26 -93 -78 -281l-22 -81q-2 -5 2 -8.5t9 -2.5l81 26q79 25 167 51z" />
    <glyph glyph-name="A" unicode="&#xc5;" horiz-adv-x="1265" 
d="M1142 75q14 -44 -4 -84.5t-59 -55.5q-42 -15 -86 6q-39 19 -51 55q-50 154 -76 231q-9 26 -33.5 39t-51.5 5q-292 -88 -356 -114q-32 -13 -40 -46q-10 -40 -26.5 -104.5t-24.5 -96.5q-13 -50 -45 -73q-37 -26 -80 -18q-46 8 -74 52q-23 37 -14 69l11 44q94 370 134 515
q4 17 14 51t14 51t13.5 50.5t14.5 50.5q1 5 20 82q17 70 30.5 116.5t35 98.5t45.5 82.5t59.5 50.5t78.5 20q17 0 25 -2q65 -12 127 -89q42 -53 70 -102q33 -60 67.5 -140t51.5 -126.5t52 -146.5l7 -20q82 -235 151 -451zM756 487q20 6 13 26l-12 34q-46 128 -93 232l-49 110
q-3 7 -10.5 6.5t-9.5 -7.5l-33 -116q-26 -93 -78 -281l-22 -81q-2 -5 2 -8.5t9 -2.5l81 26q79 25 167 51z" />
    <glyph glyph-name="A" unicode="&#xc4;" horiz-adv-x="1265" 
d="M1142 75q14 -44 -4 -84.5t-59 -55.5q-42 -15 -86 6q-39 19 -51 55q-50 154 -76 231q-9 26 -33.5 39t-51.5 5q-292 -88 -356 -114q-32 -13 -40 -46q-10 -40 -26.5 -104.5t-24.5 -96.5q-13 -50 -45 -73q-37 -26 -80 -18q-46 8 -74 52q-23 37 -14 69l11 44q94 370 134 515
q4 17 14 51t14 51t13.5 50.5t14.5 50.5q1 5 20 82q17 70 30.5 116.5t35 98.5t45.5 82.5t59.5 50.5t78.5 20q17 0 25 -2q65 -12 127 -89q42 -53 70 -102q33 -60 67.5 -140t51.5 -126.5t52 -146.5l7 -20q82 -235 151 -451zM756 487q20 6 13 26l-12 34q-46 128 -93 232l-49 110
q-3 7 -10.5 6.5t-9.5 -7.5l-33 -116q-26 -93 -78 -281l-22 -81q-2 -5 2 -8.5t9 -2.5l81 26q79 25 167 51z" />
    <glyph glyph-name="A" unicode="&#xc3;" horiz-adv-x="1265" 
d="M1142 75q14 -44 -4 -84.5t-59 -55.5q-42 -15 -86 6q-39 19 -51 55q-50 154 -76 231q-9 26 -33.5 39t-51.5 5q-292 -88 -356 -114q-32 -13 -40 -46q-10 -40 -26.5 -104.5t-24.5 -96.5q-13 -50 -45 -73q-37 -26 -80 -18q-46 8 -74 52q-23 37 -14 69l11 44q94 370 134 515
q4 17 14 51t14 51t13.5 50.5t14.5 50.5q1 5 20 82q17 70 30.5 116.5t35 98.5t45.5 82.5t59.5 50.5t78.5 20q17 0 25 -2q65 -12 127 -89q42 -53 70 -102q33 -60 67.5 -140t51.5 -126.5t52 -146.5l7 -20q82 -235 151 -451zM756 487q20 6 13 26l-12 34q-46 128 -93 232l-49 110
q-3 7 -10.5 6.5t-9.5 -7.5l-33 -116q-26 -93 -78 -281l-22 -81q-2 -5 2 -8.5t9 -2.5l81 26q79 25 167 51z" />
    <glyph glyph-name="A" unicode="&#xc2;" horiz-adv-x="1265" 
d="M1142 75q14 -44 -4 -84.5t-59 -55.5q-42 -15 -86 6q-39 19 -51 55q-50 154 -76 231q-9 26 -33.5 39t-51.5 5q-292 -88 -356 -114q-32 -13 -40 -46q-10 -40 -26.5 -104.5t-24.5 -96.5q-13 -50 -45 -73q-37 -26 -80 -18q-46 8 -74 52q-23 37 -14 69l11 44q94 370 134 515
q4 17 14 51t14 51t13.5 50.5t14.5 50.5q1 5 20 82q17 70 30.5 116.5t35 98.5t45.5 82.5t59.5 50.5t78.5 20q17 0 25 -2q65 -12 127 -89q42 -53 70 -102q33 -60 67.5 -140t51.5 -126.5t52 -146.5l7 -20q82 -235 151 -451zM756 487q20 6 13 26l-12 34q-46 128 -93 232l-49 110
q-3 7 -10.5 6.5t-9.5 -7.5l-33 -116q-26 -93 -78 -281l-22 -81q-2 -5 2 -8.5t9 -2.5l81 26q79 25 167 51z" />
    <glyph glyph-name="A" unicode="&#xc1;" horiz-adv-x="1265" 
d="M1142 75q14 -44 -4 -84.5t-59 -55.5q-42 -15 -86 6q-39 19 -51 55q-50 154 -76 231q-9 26 -33.5 39t-51.5 5q-292 -88 -356 -114q-32 -13 -40 -46q-10 -40 -26.5 -104.5t-24.5 -96.5q-13 -50 -45 -73q-37 -26 -80 -18q-46 8 -74 52q-23 37 -14 69l11 44q94 370 134 515
q4 17 14 51t14 51t13.5 50.5t14.5 50.5q1 5 20 82q17 70 30.5 116.5t35 98.5t45.5 82.5t59.5 50.5t78.5 20q17 0 25 -2q65 -12 127 -89q42 -53 70 -102q33 -60 67.5 -140t51.5 -126.5t52 -146.5l7 -20q82 -235 151 -451zM756 487q20 6 13 26l-12 34q-46 128 -93 232l-49 110
q-3 7 -10.5 6.5t-9.5 -7.5l-33 -116q-26 -93 -78 -281l-22 -81q-2 -5 2 -8.5t9 -2.5l81 26q79 25 167 51z" />
    <glyph glyph-name="A" unicode="&#xc0;" horiz-adv-x="1265" 
d="M1142 75q14 -44 -4 -84.5t-59 -55.5q-42 -15 -86 6q-39 19 -51 55q-50 154 -76 231q-9 26 -33.5 39t-51.5 5q-292 -88 -356 -114q-32 -13 -40 -46q-10 -40 -26.5 -104.5t-24.5 -96.5q-13 -50 -45 -73q-37 -26 -80 -18q-46 8 -74 52q-23 37 -14 69l11 44q94 370 134 515
q4 17 14 51t14 51t13.5 50.5t14.5 50.5q1 5 20 82q17 70 30.5 116.5t35 98.5t45.5 82.5t59.5 50.5t78.5 20q17 0 25 -2q65 -12 127 -89q42 -53 70 -102q33 -60 67.5 -140t51.5 -126.5t52 -146.5l7 -20q82 -235 151 -451zM756 487q20 6 13 26l-12 34q-46 128 -93 232l-49 110
q-3 7 -10.5 6.5t-9.5 -7.5l-33 -116q-26 -93 -78 -281l-22 -81q-2 -5 2 -8.5t9 -2.5l81 26q79 25 167 51z" />
    <glyph glyph-name="A" unicode="a" horiz-adv-x="1265" 
d="M1142 75q14 -44 -4 -84.5t-59 -55.5q-42 -15 -86 6q-39 19 -51 55q-50 154 -76 231q-9 26 -33.5 39t-51.5 5q-292 -88 -356 -114q-32 -13 -40 -46q-10 -40 -26.5 -104.5t-24.5 -96.5q-13 -50 -45 -73q-37 -26 -80 -18q-46 8 -74 52q-23 37 -14 69l11 44q94 370 134 515
q4 17 14 51t14 51t13.5 50.5t14.5 50.5q1 5 20 82q17 70 30.5 116.5t35 98.5t45.5 82.5t59.5 50.5t78.5 20q17 0 25 -2q65 -12 127 -89q42 -53 70 -102q33 -60 67.5 -140t51.5 -126.5t52 -146.5l7 -20q82 -235 151 -451zM756 487q20 6 13 26l-12 34q-46 128 -93 232l-49 110
q-3 7 -10.5 6.5t-9.5 -7.5l-33 -116q-26 -93 -78 -281l-22 -81q-2 -5 2 -8.5t9 -2.5l81 26q79 25 167 51z" />
    <glyph glyph-name="B" unicode="B" horiz-adv-x="1431" 
d="M1309 463q17 -103 -33 -197q-71 -136 -241 -203q-60 -23 -130.5 -39t-148.5 -20t-125 22q-47 24 -60 73q-12 48 16 93q17 28 42.5 42t44.5 16t55 3h20q265 9 309 117q13 32 -1 60q-10 19 -34 33.5t-41.5 19.5t-50.5 13q-18 4 -24 6q-42 12 -66 20.5t-55.5 27.5t-51.5 43
q-83 104 5 307q3 8 7 16.5t9 18.5l8 16q48 103 64 166q15 57 -28 95q-29 26 -68 26q-18 0 -32 -5q-100 -34 -188 -101l-8 -5l-1 -10q-27 -213 -38 -425q-10 -190 -11 -332q0 -33 2 -97q2 -61 -24 -94q-29 -39 -79 -45q-50 -8 -91 24q-44 34 -46 77q-7 181 8 468q5 92 12 183
l1 20l-20 3q-29 4 -54 24t-36 51.5t-5 62.5t42 83q100 140 246.5 237.5t313.5 134.5q110 25 179 3q64 -19 111.5 -78t62.5 -137q23 -124 -38 -297q-27 -77 -91 -216l-11 -24l25 -7q112 -31 188 -68.5t120 -102.5q31 -47 40 -102z" />
    <glyph glyph-name="B" unicode="b" horiz-adv-x="1431" 
d="M1309 463q17 -103 -33 -197q-71 -136 -241 -203q-60 -23 -130.5 -39t-148.5 -20t-125 22q-47 24 -60 73q-12 48 16 93q17 28 42.5 42t44.5 16t55 3h20q265 9 309 117q13 32 -1 60q-10 19 -34 33.5t-41.5 19.5t-50.5 13q-18 4 -24 6q-42 12 -66 20.5t-55.5 27.5t-51.5 43
q-83 104 5 307q3 8 7 16.5t9 18.5l8 16q48 103 64 166q15 57 -28 95q-29 26 -68 26q-18 0 -32 -5q-100 -34 -188 -101l-8 -5l-1 -10q-27 -213 -38 -425q-10 -190 -11 -332q0 -33 2 -97q2 -61 -24 -94q-29 -39 -79 -45q-50 -8 -91 24q-44 34 -46 77q-7 181 8 468q5 92 12 183
l1 20l-20 3q-29 4 -54 24t-36 51.5t-5 62.5t42 83q100 140 246.5 237.5t313.5 134.5q110 25 179 3q64 -19 111.5 -78t62.5 -137q23 -124 -38 -297q-27 -77 -91 -216l-11 -24l25 -7q112 -31 188 -68.5t120 -102.5q31 -47 40 -102z" />
    <glyph glyph-name="C" unicode="C" horiz-adv-x="1443" 
d="M1317 282q11 -33 5.5 -66t-25.5 -56q-27 -29 -95 -56q-240 -93 -466.5 -100t-397.5 73q-150 70 -199 211q-31 90 -15 202.5t75 226.5q87 169 273 335q187 168 373 243q87 34 147 34q30 0 63 -10q59 -20 86 -74q19 -38 6 -76q-18 -52 -94 -82l-14 -6q-85 -35 -139.5 -59
t-132.5 -68t-126 -87q-103 -92 -161.5 -169t-89.5 -179q-22 -72 -13 -121q17 -91 155 -121q220 -50 518 51l6 2q36 12 54 17t48 11.5t54 4.5t45 -12q43 -19 60 -69z" />
    <glyph glyph-name="C" unicode="&#xe7;" horiz-adv-x="1443" 
d="M1317 282q11 -33 5.5 -66t-25.5 -56q-27 -29 -95 -56q-240 -93 -466.5 -100t-397.5 73q-150 70 -199 211q-31 90 -15 202.5t75 226.5q87 169 273 335q187 168 373 243q87 34 147 34q30 0 63 -10q59 -20 86 -74q19 -38 6 -76q-18 -52 -94 -82l-14 -6q-85 -35 -139.5 -59
t-132.5 -68t-126 -87q-103 -92 -161.5 -169t-89.5 -179q-22 -72 -13 -121q17 -91 155 -121q220 -50 518 51l6 2q36 12 54 17t48 11.5t54 4.5t45 -12q43 -19 60 -69z" />
    <glyph glyph-name="C" unicode="&#xc7;" horiz-adv-x="1443" 
d="M1317 282q11 -33 5.5 -66t-25.5 -56q-27 -29 -95 -56q-240 -93 -466.5 -100t-397.5 73q-150 70 -199 211q-31 90 -15 202.5t75 226.5q87 169 273 335q187 168 373 243q87 34 147 34q30 0 63 -10q59 -20 86 -74q19 -38 6 -76q-18 -52 -94 -82l-14 -6q-85 -35 -139.5 -59
t-132.5 -68t-126 -87q-103 -92 -161.5 -169t-89.5 -179q-22 -72 -13 -121q17 -91 155 -121q220 -50 518 51l6 2q36 12 54 17t48 11.5t54 4.5t45 -12q43 -19 60 -69z" />
    <glyph glyph-name="C" unicode="c" horiz-adv-x="1443" 
d="M1317 282q11 -33 5.5 -66t-25.5 -56q-27 -29 -95 -56q-240 -93 -466.5 -100t-397.5 73q-150 70 -199 211q-31 90 -15 202.5t75 226.5q87 169 273 335q187 168 373 243q87 34 147 34q30 0 63 -10q59 -20 86 -74q19 -38 6 -76q-18 -52 -94 -82l-14 -6q-85 -35 -139.5 -59
t-132.5 -68t-126 -87q-103 -92 -161.5 -169t-89.5 -179q-22 -72 -13 -121q17 -91 155 -121q220 -50 518 51l6 2q36 12 54 17t48 11.5t54 4.5t45 -12q43 -19 60 -69z" />
    <glyph glyph-name="D" unicode="D" horiz-adv-x="1849" 
d="M1727 773q17 -102 -29 -205q-53 -117 -191 -236q-62 -54 -145.5 -112.5t-139 -93t-156.5 -95.5l-15 -9l-15 -9q-10 -6 -41 -26t-49 -30.5t-49.5 -28t-54.5 -26t-49.5 -16.5t-48.5 -6t-40 11q-179 96 141 275q4 2 5 3q163 93 396 265l9 6q34 25 60.5 46t54.5 45.5t48 45
t37 43.5t24.5 43t7 40.5t-11.5 38.5q-13 23 -45 37q-114 53 -241.5 78t-286.5 39q-112 10 -246 13l-16 1q-13 0 -21.5 -8.5t-8.5 -21.5v-30q3 -358 3 -359q5 -225 -15 -372q-6 -46 -52.5 -68.5t-98 -11t-70.5 51.5q-14 30 -16 97q-10 276 -11 415q0 29 -0.5 85t-0.5 85
l-1 132l-46 -1q-66 -1 -107.5 17t-67.5 69q-14 26 -6 55q17 64 69.5 87t147.5 23h22l14 17q12 14 18 19q37 31 85 31h11q54 -5 89 -46l3 -3l15 -21l50 -1q38 0 58 -1q223 -6 402.5 -29.5t340.5 -83.5q199 -74 258 -193q17 -34 23 -71z" />
    <glyph glyph-name="D" unicode="d" horiz-adv-x="1849" 
d="M1727 773q17 -102 -29 -205q-53 -117 -191 -236q-62 -54 -145.5 -112.5t-139 -93t-156.5 -95.5l-15 -9l-15 -9q-10 -6 -41 -26t-49 -30.5t-49.5 -28t-54.5 -26t-49.5 -16.5t-48.5 -6t-40 11q-179 96 141 275q4 2 5 3q163 93 396 265l9 6q34 25 60.5 46t54.5 45.5t48 45
t37 43.5t24.5 43t7 40.5t-11.5 38.5q-13 23 -45 37q-114 53 -241.5 78t-286.5 39q-112 10 -246 13l-16 1q-13 0 -21.5 -8.5t-8.5 -21.5v-30q3 -358 3 -359q5 -225 -15 -372q-6 -46 -52.5 -68.5t-98 -11t-70.5 51.5q-14 30 -16 97q-10 276 -11 415q0 29 -0.5 85t-0.5 85
l-1 132l-46 -1q-66 -1 -107.5 17t-67.5 69q-14 26 -6 55q17 64 69.5 87t147.5 23h22l14 17q12 14 18 19q37 31 85 31h11q54 -5 89 -46l3 -3l15 -21l50 -1q38 0 58 -1q223 -6 402.5 -29.5t340.5 -83.5q199 -74 258 -193q17 -34 23 -71z" />
    <glyph glyph-name="E" unicode="E" horiz-adv-x="1253" 
d="M1072 405q45 -27 57 -75q13 -49 -13 -92.5t-75 -56.5q-141 -37 -395 -93q-142 -31 -218 -37q-94 -6 -134 3q-51 11 -88 36q-38 25 -58 59q-3 8 -9.5 23.5t-9.5 23.5q-11 67 -10 107q1 48 6 89q10 102 28 252q3 21 7 64t7 65q15 135 45 439q7 69 51 102q36 26 82 23l9 -1
l8 4q8 5 24 10q214 74 319 112q143 52 280 99q42 14 90 -14q43 -26 56 -75q12 -48 -13 -93q-23 -38 -78 -57q-375 -130 -545 -193q-21 -8 -35.5 -26t-16.5 -40q-3 -22 -7.5 -65t-6.5 -64q-3 -31 21 -50q23 -18 53 -8q116 42 212 71q138 41 230 62q16 3 29 2q39 -4 71 -34
t39 -70q8 -50 -22 -91q-26 -38 -81 -50q-307 -68 -557 -200q-18 -9 -28 -22q-13 -16 -15 -44l-11 -99q-6 -49 27 -78q26 -22 75 -22.5t94.5 10t119.5 33.5q45 13 48 14q71 16 246 61q48 12 92 -14z" />
    <glyph glyph-name="E" unicode="&#xeb;" horiz-adv-x="1253" 
d="M1072 405q45 -27 57 -75q13 -49 -13 -92.5t-75 -56.5q-141 -37 -395 -93q-142 -31 -218 -37q-94 -6 -134 3q-51 11 -88 36q-38 25 -58 59q-3 8 -9.5 23.5t-9.5 23.5q-11 67 -10 107q1 48 6 89q10 102 28 252q3 21 7 64t7 65q15 135 45 439q7 69 51 102q36 26 82 23l9 -1
l8 4q8 5 24 10q214 74 319 112q143 52 280 99q42 14 90 -14q43 -26 56 -75q12 -48 -13 -93q-23 -38 -78 -57q-375 -130 -545 -193q-21 -8 -35.5 -26t-16.5 -40q-3 -22 -7.5 -65t-6.5 -64q-3 -31 21 -50q23 -18 53 -8q116 42 212 71q138 41 230 62q16 3 29 2q39 -4 71 -34
t39 -70q8 -50 -22 -91q-26 -38 -81 -50q-307 -68 -557 -200q-18 -9 -28 -22q-13 -16 -15 -44l-11 -99q-6 -49 27 -78q26 -22 75 -22.5t94.5 10t119.5 33.5q45 13 48 14q71 16 246 61q48 12 92 -14z" />
    <glyph glyph-name="E" unicode="&#xea;" horiz-adv-x="1253" 
d="M1072 405q45 -27 57 -75q13 -49 -13 -92.5t-75 -56.5q-141 -37 -395 -93q-142 -31 -218 -37q-94 -6 -134 3q-51 11 -88 36q-38 25 -58 59q-3 8 -9.5 23.5t-9.5 23.5q-11 67 -10 107q1 48 6 89q10 102 28 252q3 21 7 64t7 65q15 135 45 439q7 69 51 102q36 26 82 23l9 -1
l8 4q8 5 24 10q214 74 319 112q143 52 280 99q42 14 90 -14q43 -26 56 -75q12 -48 -13 -93q-23 -38 -78 -57q-375 -130 -545 -193q-21 -8 -35.5 -26t-16.5 -40q-3 -22 -7.5 -65t-6.5 -64q-3 -31 21 -50q23 -18 53 -8q116 42 212 71q138 41 230 62q16 3 29 2q39 -4 71 -34
t39 -70q8 -50 -22 -91q-26 -38 -81 -50q-307 -68 -557 -200q-18 -9 -28 -22q-13 -16 -15 -44l-11 -99q-6 -49 27 -78q26 -22 75 -22.5t94.5 10t119.5 33.5q45 13 48 14q71 16 246 61q48 12 92 -14z" />
    <glyph glyph-name="E" unicode="&#xe9;" horiz-adv-x="1253" 
d="M1072 405q45 -27 57 -75q13 -49 -13 -92.5t-75 -56.5q-141 -37 -395 -93q-142 -31 -218 -37q-94 -6 -134 3q-51 11 -88 36q-38 25 -58 59q-3 8 -9.5 23.5t-9.5 23.5q-11 67 -10 107q1 48 6 89q10 102 28 252q3 21 7 64t7 65q15 135 45 439q7 69 51 102q36 26 82 23l9 -1
l8 4q8 5 24 10q214 74 319 112q143 52 280 99q42 14 90 -14q43 -26 56 -75q12 -48 -13 -93q-23 -38 -78 -57q-375 -130 -545 -193q-21 -8 -35.5 -26t-16.5 -40q-3 -22 -7.5 -65t-6.5 -64q-3 -31 21 -50q23 -18 53 -8q116 42 212 71q138 41 230 62q16 3 29 2q39 -4 71 -34
t39 -70q8 -50 -22 -91q-26 -38 -81 -50q-307 -68 -557 -200q-18 -9 -28 -22q-13 -16 -15 -44l-11 -99q-6 -49 27 -78q26 -22 75 -22.5t94.5 10t119.5 33.5q45 13 48 14q71 16 246 61q48 12 92 -14z" />
    <glyph glyph-name="E" unicode="&#xe8;" horiz-adv-x="1253" 
d="M1072 405q45 -27 57 -75q13 -49 -13 -92.5t-75 -56.5q-141 -37 -395 -93q-142 -31 -218 -37q-94 -6 -134 3q-51 11 -88 36q-38 25 -58 59q-3 8 -9.5 23.5t-9.5 23.5q-11 67 -10 107q1 48 6 89q10 102 28 252q3 21 7 64t7 65q15 135 45 439q7 69 51 102q36 26 82 23l9 -1
l8 4q8 5 24 10q214 74 319 112q143 52 280 99q42 14 90 -14q43 -26 56 -75q12 -48 -13 -93q-23 -38 -78 -57q-375 -130 -545 -193q-21 -8 -35.5 -26t-16.5 -40q-3 -22 -7.5 -65t-6.5 -64q-3 -31 21 -50q23 -18 53 -8q116 42 212 71q138 41 230 62q16 3 29 2q39 -4 71 -34
t39 -70q8 -50 -22 -91q-26 -38 -81 -50q-307 -68 -557 -200q-18 -9 -28 -22q-13 -16 -15 -44l-11 -99q-6 -49 27 -78q26 -22 75 -22.5t94.5 10t119.5 33.5q45 13 48 14q71 16 246 61q48 12 92 -14z" />
    <glyph glyph-name="E" unicode="&#xcb;" horiz-adv-x="1253" 
d="M1072 405q45 -27 57 -75q13 -49 -13 -92.5t-75 -56.5q-141 -37 -395 -93q-142 -31 -218 -37q-94 -6 -134 3q-51 11 -88 36q-38 25 -58 59q-3 8 -9.5 23.5t-9.5 23.5q-11 67 -10 107q1 48 6 89q10 102 28 252q3 21 7 64t7 65q15 135 45 439q7 69 51 102q36 26 82 23l9 -1
l8 4q8 5 24 10q214 74 319 112q143 52 280 99q42 14 90 -14q43 -26 56 -75q12 -48 -13 -93q-23 -38 -78 -57q-375 -130 -545 -193q-21 -8 -35.5 -26t-16.5 -40q-3 -22 -7.5 -65t-6.5 -64q-3 -31 21 -50q23 -18 53 -8q116 42 212 71q138 41 230 62q16 3 29 2q39 -4 71 -34
t39 -70q8 -50 -22 -91q-26 -38 -81 -50q-307 -68 -557 -200q-18 -9 -28 -22q-13 -16 -15 -44l-11 -99q-6 -49 27 -78q26 -22 75 -22.5t94.5 10t119.5 33.5q45 13 48 14q71 16 246 61q48 12 92 -14z" />
    <glyph glyph-name="E" unicode="&#xca;" horiz-adv-x="1253" 
d="M1072 405q45 -27 57 -75q13 -49 -13 -92.5t-75 -56.5q-141 -37 -395 -93q-142 -31 -218 -37q-94 -6 -134 3q-51 11 -88 36q-38 25 -58 59q-3 8 -9.5 23.5t-9.5 23.5q-11 67 -10 107q1 48 6 89q10 102 28 252q3 21 7 64t7 65q15 135 45 439q7 69 51 102q36 26 82 23l9 -1
l8 4q8 5 24 10q214 74 319 112q143 52 280 99q42 14 90 -14q43 -26 56 -75q12 -48 -13 -93q-23 -38 -78 -57q-375 -130 -545 -193q-21 -8 -35.5 -26t-16.5 -40q-3 -22 -7.5 -65t-6.5 -64q-3 -31 21 -50q23 -18 53 -8q116 42 212 71q138 41 230 62q16 3 29 2q39 -4 71 -34
t39 -70q8 -50 -22 -91q-26 -38 -81 -50q-307 -68 -557 -200q-18 -9 -28 -22q-13 -16 -15 -44l-11 -99q-6 -49 27 -78q26 -22 75 -22.5t94.5 10t119.5 33.5q45 13 48 14q71 16 246 61q48 12 92 -14z" />
    <glyph glyph-name="E" unicode="&#xc9;" horiz-adv-x="1253" 
d="M1072 405q45 -27 57 -75q13 -49 -13 -92.5t-75 -56.5q-141 -37 -395 -93q-142 -31 -218 -37q-94 -6 -134 3q-51 11 -88 36q-38 25 -58 59q-3 8 -9.5 23.5t-9.5 23.5q-11 67 -10 107q1 48 6 89q10 102 28 252q3 21 7 64t7 65q15 135 45 439q7 69 51 102q36 26 82 23l9 -1
l8 4q8 5 24 10q214 74 319 112q143 52 280 99q42 14 90 -14q43 -26 56 -75q12 -48 -13 -93q-23 -38 -78 -57q-375 -130 -545 -193q-21 -8 -35.5 -26t-16.5 -40q-3 -22 -7.5 -65t-6.5 -64q-3 -31 21 -50q23 -18 53 -8q116 42 212 71q138 41 230 62q16 3 29 2q39 -4 71 -34
t39 -70q8 -50 -22 -91q-26 -38 -81 -50q-307 -68 -557 -200q-18 -9 -28 -22q-13 -16 -15 -44l-11 -99q-6 -49 27 -78q26 -22 75 -22.5t94.5 10t119.5 33.5q45 13 48 14q71 16 246 61q48 12 92 -14z" />
    <glyph glyph-name="E" unicode="&#xc8;" horiz-adv-x="1253" 
d="M1072 405q45 -27 57 -75q13 -49 -13 -92.5t-75 -56.5q-141 -37 -395 -93q-142 -31 -218 -37q-94 -6 -134 3q-51 11 -88 36q-38 25 -58 59q-3 8 -9.5 23.5t-9.5 23.5q-11 67 -10 107q1 48 6 89q10 102 28 252q3 21 7 64t7 65q15 135 45 439q7 69 51 102q36 26 82 23l9 -1
l8 4q8 5 24 10q214 74 319 112q143 52 280 99q42 14 90 -14q43 -26 56 -75q12 -48 -13 -93q-23 -38 -78 -57q-375 -130 -545 -193q-21 -8 -35.5 -26t-16.5 -40q-3 -22 -7.5 -65t-6.5 -64q-3 -31 21 -50q23 -18 53 -8q116 42 212 71q138 41 230 62q16 3 29 2q39 -4 71 -34
t39 -70q8 -50 -22 -91q-26 -38 -81 -50q-307 -68 -557 -200q-18 -9 -28 -22q-13 -16 -15 -44l-11 -99q-6 -49 27 -78q26 -22 75 -22.5t94.5 10t119.5 33.5q45 13 48 14q71 16 246 61q48 12 92 -14z" />
    <glyph glyph-name="E" unicode="e" horiz-adv-x="1253" 
d="M1072 405q45 -27 57 -75q13 -49 -13 -92.5t-75 -56.5q-141 -37 -395 -93q-142 -31 -218 -37q-94 -6 -134 3q-51 11 -88 36q-38 25 -58 59q-3 8 -9.5 23.5t-9.5 23.5q-11 67 -10 107q1 48 6 89q10 102 28 252q3 21 7 64t7 65q15 135 45 439q7 69 51 102q36 26 82 23l9 -1
l8 4q8 5 24 10q214 74 319 112q143 52 280 99q42 14 90 -14q43 -26 56 -75q12 -48 -13 -93q-23 -38 -78 -57q-375 -130 -545 -193q-21 -8 -35.5 -26t-16.5 -40q-3 -22 -7.5 -65t-6.5 -64q-3 -31 21 -50q23 -18 53 -8q116 42 212 71q138 41 230 62q16 3 29 2q39 -4 71 -34
t39 -70q8 -50 -22 -91q-26 -38 -81 -50q-307 -68 -557 -200q-18 -9 -28 -22q-13 -16 -15 -44l-11 -99q-6 -49 27 -78q26 -22 75 -22.5t94.5 10t119.5 33.5q45 13 48 14q71 16 246 61q48 12 92 -14z" />
    <glyph glyph-name="F" unicode="F" horiz-adv-x="1249" 
d="M1129 1406q0 -2 0.5 -7t0.5 -7q0 -1 -0.5 -2.5t-0.5 -2.5v-8q0 -1 -0.5 -2t-0.5 -2q0 -2 -2 -8v-3l-3 -9l-3 -6q0 -1 -1 -2l-1 -2q-1 -1 -2.5 -3t-1.5 -3t-1 -1l-1 -2q0 -1 -2 -2.5t-2 -2.5l-4 -4l-6 -6l-2 -2q-1 -1 -3.5 -2.5t-3.5 -2.5l-3 -3q-1 -1 -7 -4q-1 -1 -4 -3
q-1 -1 -4 -2.5l-5 -2.5l-1 -1h-1q-2 -1 -5.5 -2.5t-5.5 -2.5q-1 0 -1 -0.5t-1 -0.5q-2 0 -5.5 -1.5t-5.5 -2.5h-1q-1 -1 -2 -1q-2 -1 -5.5 -2t-5.5 -2l-1 -1h-2q-2 0 -5.5 -1.5t-5.5 -2.5h-2.5t-2.5 -1l-9 -3q-1 0 -3.5 -1t-3.5 -1q-20 -5 -60 -17q-2 -1 -6.5 -3t-6.5 -2
q-26 -8 -47 -16q-2 -1 -8 -3t-8 -3q-22 -8 -41 -16l-21 -9q-6 -2 -17.5 -7t-17.5 -8q-4 -2 -12.5 -5.5t-12.5 -5.5q-7 -3 -21.5 -10t-21.5 -11q-3 -2 -6.5 -3.5t-8 -4t-7.5 -3.5q-8 -4 -22.5 -11.5t-21.5 -11.5l-11 -5.5t-10 -5.5q-44 -24 -60 -46.5t-22 -68.5
q-6 -58 -9 -88q-1 -9 -2.5 -27t-2.5 -27l-15 -171l-3 -35l72 25q127 46 311 94q55 14 93 -4q44 -21 60 -65q17 -46 -5 -91q-9 -19 -26.5 -36t-36.5 -22q-197 -51 -321 -97l-93 -33l-71 -26l-3 -45q-1 -10 -2 -28t-2 -28q-6 -153 1 -250q3 -50 -27.5 -87t-78.5 -41
q-48 -5 -88 29q-36 30 -39 76q-7 99 1 277l1 20l-20 3q-66 13 -89 74q-17 45 5 91q20 43 64 59l55 19l1 15q13 181 27 331l2 23l-22 2q-55 5 -84 48q-29 41 -20 82q11 58 80 101l13 8q92 58 143.5 89.5t142 82t157 79t151 54.5t161.5 35q2 0 6.5 0.5t6.5 0.5
q43 0 76.5 -31.5t37.5 -75.5z" />
    <glyph glyph-name="F" unicode="f" horiz-adv-x="1249" 
d="M1129 1406q0 -2 0.5 -7t0.5 -7q0 -1 -0.5 -2.5t-0.5 -2.5v-8q0 -1 -0.5 -2t-0.5 -2q0 -2 -2 -8v-3l-3 -9l-3 -6q0 -1 -1 -2l-1 -2q-1 -1 -2.5 -3t-1.5 -3t-1 -1l-1 -2q0 -1 -2 -2.5t-2 -2.5l-4 -4l-6 -6l-2 -2q-1 -1 -3.5 -2.5t-3.5 -2.5l-3 -3q-1 -1 -7 -4q-1 -1 -4 -3
q-1 -1 -4 -2.5l-5 -2.5l-1 -1h-1q-2 -1 -5.5 -2.5t-5.5 -2.5q-1 0 -1 -0.5t-1 -0.5q-2 0 -5.5 -1.5t-5.5 -2.5h-1q-1 -1 -2 -1q-2 -1 -5.5 -2t-5.5 -2l-1 -1h-2q-2 0 -5.5 -1.5t-5.5 -2.5h-2.5t-2.5 -1l-9 -3q-1 0 -3.5 -1t-3.5 -1q-20 -5 -60 -17q-2 -1 -6.5 -3t-6.5 -2
q-26 -8 -47 -16q-2 -1 -8 -3t-8 -3q-22 -8 -41 -16l-21 -9q-6 -2 -17.5 -7t-17.5 -8q-4 -2 -12.5 -5.5t-12.5 -5.5q-7 -3 -21.5 -10t-21.5 -11q-3 -2 -6.5 -3.5t-8 -4t-7.5 -3.5q-8 -4 -22.5 -11.5t-21.5 -11.5l-11 -5.5t-10 -5.5q-44 -24 -60 -46.5t-22 -68.5
q-6 -58 -9 -88q-1 -9 -2.5 -27t-2.5 -27l-15 -171l-3 -35l72 25q127 46 311 94q55 14 93 -4q44 -21 60 -65q17 -46 -5 -91q-9 -19 -26.5 -36t-36.5 -22q-197 -51 -321 -97l-93 -33l-71 -26l-3 -45q-1 -10 -2 -28t-2 -28q-6 -153 1 -250q3 -50 -27.5 -87t-78.5 -41
q-48 -5 -88 29q-36 30 -39 76q-7 99 1 277l1 20l-20 3q-66 13 -89 74q-17 45 5 91q20 43 64 59l55 19l1 15q13 181 27 331l2 23l-22 2q-55 5 -84 48q-29 41 -20 82q11 58 80 101l13 8q92 58 143.5 89.5t142 82t157 79t151 54.5t161.5 35q2 0 6.5 0.5t6.5 0.5
q43 0 76.5 -31.5t37.5 -75.5z" />
    <glyph glyph-name="G" unicode="G" horiz-adv-x="1359" 
d="M1179 341l22 -110q16 -78 7 -111q-7 -28 -27.5 -50t-48.5 -31q-60 -20 -109 21q-44 37 -58 130q-5 29 -31 40q-24 11 -49 -6q-13 -9 -88 -56q-7 -4 -15.5 -9.5t-10.5 -6.5q-5 -3 -13 -9t-13 -9q-64 -44 -81 -54q-91 -53 -198 -73q-180 -34 -286 59q-39 35 -52 94.5
t-8.5 106.5t17.5 97q66 256 162.5 439t238.5 322q103 101 235.5 155t274.5 54q18 0 54 -2q46 -3 75 -18q28 -14 45.5 -42t17.5 -60q0 -31 -17.5 -59t-45.5 -42q-29 -14 -105 -16q-25 0 -37 -1q-204 -11 -369 -177q-128 -129 -218 -345l-6 -15q-22 -53 -32 -81.5t-11 -74
t18 -85.5q17 -36 57 -45q49 -11 118.5 20t130.5 81q25 21 64 60q38 38 60 58t57 44.5t60 30.5q32 7 60 3q37 -6 64.5 -27t45 -56t27 -67t18.5 -77z" />
    <glyph glyph-name="G" unicode="g" horiz-adv-x="1359" 
d="M1179 341l22 -110q16 -78 7 -111q-7 -28 -27.5 -50t-48.5 -31q-60 -20 -109 21q-44 37 -58 130q-5 29 -31 40q-24 11 -49 -6q-13 -9 -88 -56q-7 -4 -15.5 -9.5t-10.5 -6.5q-5 -3 -13 -9t-13 -9q-64 -44 -81 -54q-91 -53 -198 -73q-180 -34 -286 59q-39 35 -52 94.5
t-8.5 106.5t17.5 97q66 256 162.5 439t238.5 322q103 101 235.5 155t274.5 54q18 0 54 -2q46 -3 75 -18q28 -14 45.5 -42t17.5 -60q0 -31 -17.5 -59t-45.5 -42q-29 -14 -105 -16q-25 0 -37 -1q-204 -11 -369 -177q-128 -129 -218 -345l-6 -15q-22 -53 -32 -81.5t-11 -74
t18 -85.5q17 -36 57 -45q49 -11 118.5 20t130.5 81q25 21 64 60q38 38 60 58t57 44.5t60 30.5q32 7 60 3q37 -6 64.5 -27t45 -56t27 -67t18.5 -77z" />
    <glyph glyph-name="H" unicode="H" horiz-adv-x="1228" 
d="M1092 443q1 -21 11.5 -192t3.5 -261q-4 -43 -13 -62q-11 -25 -37.5 -38.5t-56.5 -13.5q-50 0 -84 36q-22 24 -29 51v5q-1 5 -2 16t-2 16q-18 145 -26 444l-1 18q-1 14 -10 27.5t-22 17.5q-9 3 -28 -1q-169 -34 -327 -43q-30 -2 -48 -23t-15 -50l2 -16q1 -9 2.5 -26
t2.5 -25q14 -108 32 -191q10 -50 -14 -92t-71 -54q-48 -13 -93 16q-40 24 -49 67q-25 123 -51 355l-6 53q-22 195 -42 422q-3 41 36 80q35 33 82 33q41 0 70 -23q42 -32 48 -100q1 -17 4.5 -51t5.5 -52l4 -40q2 -22 19 -36.5t39 -12.5q61 5 377 48q18 2 29.5 16t10.5 33
q-8 176 -16 298q-3 39 29 74q38 40 90 40q50 0 84 -36q30 -32 33 -85q19 -292 26 -562z" />
    <glyph glyph-name="H" unicode="h" horiz-adv-x="1228" 
d="M1092 443q1 -21 11.5 -192t3.5 -261q-4 -43 -13 -62q-11 -25 -37.5 -38.5t-56.5 -13.5q-50 0 -84 36q-22 24 -29 51v5q-1 5 -2 16t-2 16q-18 145 -26 444l-1 18q-1 14 -10 27.5t-22 17.5q-9 3 -28 -1q-169 -34 -327 -43q-30 -2 -48 -23t-15 -50l2 -16q1 -9 2.5 -26
t2.5 -25q14 -108 32 -191q10 -50 -14 -92t-71 -54q-48 -13 -93 16q-40 24 -49 67q-25 123 -51 355l-6 53q-22 195 -42 422q-3 41 36 80q35 33 82 33q41 0 70 -23q42 -32 48 -100q1 -17 4.5 -51t5.5 -52l4 -40q2 -22 19 -36.5t39 -12.5q61 5 377 48q18 2 29.5 16t10.5 33
q-8 176 -16 298q-3 39 29 74q38 40 90 40q50 0 84 -36q30 -32 33 -85q19 -292 26 -562z" />
    <glyph glyph-name="I" unicode="I" horiz-adv-x="561" 
d="M437 158q13 -58 -9 -99q-25 -45 -74 -61q-53 -16 -104 13q-44 24 -55 70q-38 158 -52 491l-2 51q-15 329 -22 585q-1 52 34.5 91t87.5 41h4h7q49 -3 84.5 -38.5t36.5 -83.5q9 -313 21 -576l1 -19q12 -286 33 -426z" />
    <glyph glyph-name="I" unicode="&#xef;" horiz-adv-x="561" 
d="M437 158q13 -58 -9 -99q-25 -45 -74 -61q-53 -16 -104 13q-44 24 -55 70q-38 158 -52 491l-2 51q-15 329 -22 585q-1 52 34.5 91t87.5 41h4h7q49 -3 84.5 -38.5t36.5 -83.5q9 -313 21 -576l1 -19q12 -286 33 -426z" />
    <glyph glyph-name="I" unicode="&#xee;" horiz-adv-x="561" 
d="M437 158q13 -58 -9 -99q-25 -45 -74 -61q-53 -16 -104 13q-44 24 -55 70q-38 158 -52 491l-2 51q-15 329 -22 585q-1 52 34.5 91t87.5 41h4h7q49 -3 84.5 -38.5t36.5 -83.5q9 -313 21 -576l1 -19q12 -286 33 -426z" />
    <glyph glyph-name="I" unicode="&#xed;" horiz-adv-x="561" 
d="M437 158q13 -58 -9 -99q-25 -45 -74 -61q-53 -16 -104 13q-44 24 -55 70q-38 158 -52 491l-2 51q-15 329 -22 585q-1 52 34.5 91t87.5 41h4h7q49 -3 84.5 -38.5t36.5 -83.5q9 -313 21 -576l1 -19q12 -286 33 -426z" />
    <glyph glyph-name="I" unicode="&#xec;" horiz-adv-x="561" 
d="M437 158q13 -58 -9 -99q-25 -45 -74 -61q-53 -16 -104 13q-44 24 -55 70q-38 158 -52 491l-2 51q-15 329 -22 585q-1 52 34.5 91t87.5 41h4h7q49 -3 84.5 -38.5t36.5 -83.5q9 -313 21 -576l1 -19q12 -286 33 -426z" />
    <glyph glyph-name="I" unicode="&#xcf;" horiz-adv-x="561" 
d="M437 158q13 -58 -9 -99q-25 -45 -74 -61q-53 -16 -104 13q-44 24 -55 70q-38 158 -52 491l-2 51q-15 329 -22 585q-1 52 34.5 91t87.5 41h4h7q49 -3 84.5 -38.5t36.5 -83.5q9 -313 21 -576l1 -19q12 -286 33 -426z" />
    <glyph glyph-name="I" unicode="&#xce;" horiz-adv-x="561" 
d="M437 158q13 -58 -9 -99q-25 -45 -74 -61q-53 -16 -104 13q-44 24 -55 70q-38 158 -52 491l-2 51q-15 329 -22 585q-1 52 34.5 91t87.5 41h4h7q49 -3 84.5 -38.5t36.5 -83.5q9 -313 21 -576l1 -19q12 -286 33 -426z" />
    <glyph glyph-name="I" unicode="&#xcd;" horiz-adv-x="561" 
d="M437 158q13 -58 -9 -99q-25 -45 -74 -61q-53 -16 -104 13q-44 24 -55 70q-38 158 -52 491l-2 51q-15 329 -22 585q-1 52 34.5 91t87.5 41h4h7q49 -3 84.5 -38.5t36.5 -83.5q9 -313 21 -576l1 -19q12 -286 33 -426z" />
    <glyph glyph-name="I" unicode="&#xcc;" horiz-adv-x="561" 
d="M437 158q13 -58 -9 -99q-25 -45 -74 -61q-53 -16 -104 13q-44 24 -55 70q-38 158 -52 491l-2 51q-15 329 -22 585q-1 52 34.5 91t87.5 41h4h7q49 -3 84.5 -38.5t36.5 -83.5q9 -313 21 -576l1 -19q12 -286 33 -426z" />
    <glyph glyph-name="I" unicode="i" horiz-adv-x="561" 
d="M437 158q13 -58 -9 -99q-25 -45 -74 -61q-53 -16 -104 13q-44 24 -55 70q-38 158 -52 491l-2 51q-15 329 -22 585q-1 52 34.5 91t87.5 41h4h7q49 -3 84.5 -38.5t36.5 -83.5q9 -313 21 -576l1 -19q12 -286 33 -426z" />
    <glyph glyph-name="J" unicode="J" horiz-adv-x="1794" 
d="M1670 1414q14 -48 -10 -92q-11 -20 -29.5 -36.5t-36.5 -19.5q-80 -14 -242 -38q-20 -3 -62 -9.5t-62 -9.5q-6 -1 -23 -2t-25 -2t-16 -8t-7 -20q7 -112 8.5 -193t-3 -185.5t-24 -199t-53.5 -176.5q-54 -130 -148 -222q-84 -82 -214.5 -136t-268.5 -62t-258 47
q-32 16 -54 50t-23 68q-2 50 44 74q19 10 51 10q39 0 63 -10q87 -33 189 -23.5t195 58.5q86 46 143.5 115t77.5 153q32 130 40 337q2 85 0 254q0 10 -5.5 15.5t-17 6.5t-19.5 0.5t-22 -3.5t-16 -3q-73 -9 -254 -35l-211 -29q-20 -3 -44 7t-40 25q-35 34 -37 82q-2 50 33 86
q27 29 84 37q81 11 177 25t226.5 33t222.5 32q21 3 63.5 9t63.5 9q224 31 384 59q62 10 104 -11t56 -67z" />
    <glyph glyph-name="J" unicode="j" horiz-adv-x="1794" 
d="M1670 1414q14 -48 -10 -92q-11 -20 -29.5 -36.5t-36.5 -19.5q-80 -14 -242 -38q-20 -3 -62 -9.5t-62 -9.5q-6 -1 -23 -2t-25 -2t-16 -8t-7 -20q7 -112 8.5 -193t-3 -185.5t-24 -199t-53.5 -176.5q-54 -130 -148 -222q-84 -82 -214.5 -136t-268.5 -62t-258 47
q-32 16 -54 50t-23 68q-2 50 44 74q19 10 51 10q39 0 63 -10q87 -33 189 -23.5t195 58.5q86 46 143.5 115t77.5 153q32 130 40 337q2 85 0 254q0 10 -5.5 15.5t-17 6.5t-19.5 0.5t-22 -3.5t-16 -3q-73 -9 -254 -35l-211 -29q-20 -3 -44 7t-40 25q-35 34 -37 82q-2 50 33 86
q27 29 84 37q81 11 177 25t226.5 33t222.5 32q21 3 63.5 9t63.5 9q224 31 384 59q62 10 104 -11t56 -67z" />
    <glyph glyph-name="K" unicode="K" horiz-adv-x="1292" 
d="M1141 181q30 -30 32 -71.5t-25 -73.5q-21 -24 -51 -31.5t-58 4.5q-43 19 -144 97q-76 57 -98 71q-90 58 -211 132q-19 11 -39 11q-38 0 -59 -29q-1 -1 -47.5 -77t-95.5 -141t-76 -72q-60 -14 -89.5 -1.5t-45.5 56.5q-21 80 -13 495t27 572q6 52 42 84t85 28q49 -3 84 -46
q31 -37 26 -80q-16 -130 -31 -545l-1 -25q0 -11 7 -18q6 -6 16 -6q9 1 23.5 14.5t63.5 76.5t129 178l40 57q26 38 143.5 224t177.5 259q37 45 78 53q49 10 91 -19q48 -34 50 -87q1 -58 -390 -630q-5 -7 -15.5 -22.5t-15.5 -23.5l-21 -32q-19 -28 -11 -61t39 -49
q56 -29 84 -47q19 -13 44 -27l7 8l-6 -9q62 -38 91 -57t71.5 -54.5t91.5 -85.5z" />
    <glyph glyph-name="K" unicode="k" horiz-adv-x="1292" 
d="M1141 181q30 -30 32 -71.5t-25 -73.5q-21 -24 -51 -31.5t-58 4.5q-43 19 -144 97q-76 57 -98 71q-90 58 -211 132q-19 11 -39 11q-38 0 -59 -29q-1 -1 -47.5 -77t-95.5 -141t-76 -72q-60 -14 -89.5 -1.5t-45.5 56.5q-21 80 -13 495t27 572q6 52 42 84t85 28q49 -3 84 -46
q31 -37 26 -80q-16 -130 -31 -545l-1 -25q0 -11 7 -18q6 -6 16 -6q9 1 23.5 14.5t63.5 76.5t129 178l40 57q26 38 143.5 224t177.5 259q37 45 78 53q49 10 91 -19q48 -34 50 -87q1 -58 -390 -630q-5 -7 -15.5 -22.5t-15.5 -23.5l-21 -32q-19 -28 -11 -61t39 -49
q56 -29 84 -47q19 -13 44 -27l7 8l-6 -9q62 -38 91 -57t71.5 -54.5t91.5 -85.5z" />
    <glyph glyph-name="L" unicode="L" horiz-adv-x="1265" 
d="M1146 187q3 -58 -37 -97q-31 -29 -107 -51q-88 -24 -184.5 -36t-202.5 -6.5t-196.5 31.5t-164.5 84.5t-109 144.5q-13 32 -19 74t-7 70t0 79l9 661q2 98 23 134q15 27 42.5 43.5t58.5 17.5h3q65 0 101 -54q29 -44 27 -161l-16 -681q-2 -51 13 -81q19 -38 65 -62
q67 -37 152.5 -46.5t156 0t166.5 32.5q93 22 135 12q31 -7 55 -31.5t32 -55.5q4 -14 4 -21z" />
    <glyph glyph-name="L" unicode="l" horiz-adv-x="1265" 
d="M1146 187q3 -58 -37 -97q-31 -29 -107 -51q-88 -24 -184.5 -36t-202.5 -6.5t-196.5 31.5t-164.5 84.5t-109 144.5q-13 32 -19 74t-7 70t0 79l9 661q2 98 23 134q15 27 42.5 43.5t58.5 17.5h3q65 0 101 -54q29 -44 27 -161l-16 -681q-2 -51 13 -81q19 -38 65 -62
q67 -37 152.5 -46.5t156 0t166.5 32.5q93 22 135 12q31 -7 55 -31.5t32 -55.5q4 -14 4 -21z" />
    <glyph glyph-name="M" unicode="M" horiz-adv-x="2269" 
d="M2147 98q12 -46 -12 -89q-25 -43 -73 -56q-47 -13 -90 12t-56 73q-24 87 -61 316q-16 97 -24.5 146t-27 131t-43 148t-56.5 128q-11 22 -35 31t-49 0q-17 -6 -32 -28q-39 -62 -137 -231q-162 -283 -268 -421q-69 -88 -121 -114q-43 -21 -93 -13t-82 42q-17 19 -25 38
q-17 34 -30 111l-4 22l-15 78q-9 47 -29 141l-7 34q-3 13 -8.5 39t-8.5 40q-5 20 -20 35t-35 18q-22 4 -41.5 -6.5t-29.5 -31.5q-6 -13 -18.5 -40.5t-18.5 -41.5l-10 -24q-116 -272 -173 -408q-5 -11 -11.5 -28.5t-11.5 -32t-13 -34t-15 -34t-17 -32t-20 -28t-23.5 -22.5
t-27 -15t-31.5 -6t-37 5q-48 15 -72 57q-11 19 -15 43.5t3 42.5q101 242 178 423l24 57l57 132q4 8 10.5 24.5t9.5 22.5q31 73 54 119l6 12q45 88 79 120q37 35 96 51q26 7 59 7q41 0 71 -8q50 -13 70 -26q20 -11 41 -30l5 -6q30 -36 38 -52q12 -26 18 -40q34 -82 55 -181
q6 -28 18 -85t18 -85l9 -46q2 -10 12 -11.5t15 6.5l24 40q44 70 50 80l15 24q43 70 77 130q7 11 20 35t19 35q94 169 158 262l7 10q20 30 36 48q18 20 36 30l3 1q41 29 89 41q24 6 53 3q32 -3 68 -17q44 -18 82 -50t64.5 -68t51 -85t39 -88.5t31.5 -90.5q17 -54 33 -119
t25 -112.5t23 -124t22 -115.5q50 -248 55 -268z" />
    <glyph glyph-name="M" unicode="m" horiz-adv-x="2269" 
d="M2147 98q12 -46 -12 -89q-25 -43 -73 -56q-47 -13 -90 12t-56 73q-24 87 -61 316q-16 97 -24.5 146t-27 131t-43 148t-56.5 128q-11 22 -35 31t-49 0q-17 -6 -32 -28q-39 -62 -137 -231q-162 -283 -268 -421q-69 -88 -121 -114q-43 -21 -93 -13t-82 42q-17 19 -25 38
q-17 34 -30 111l-4 22l-15 78q-9 47 -29 141l-7 34q-3 13 -8.5 39t-8.5 40q-5 20 -20 35t-35 18q-22 4 -41.5 -6.5t-29.5 -31.5q-6 -13 -18.5 -40.5t-18.5 -41.5l-10 -24q-116 -272 -173 -408q-5 -11 -11.5 -28.5t-11.5 -32t-13 -34t-15 -34t-17 -32t-20 -28t-23.5 -22.5
t-27 -15t-31.5 -6t-37 5q-48 15 -72 57q-11 19 -15 43.5t3 42.5q101 242 178 423l24 57l57 132q4 8 10.5 24.5t9.5 22.5q31 73 54 119l6 12q45 88 79 120q37 35 96 51q26 7 59 7q41 0 71 -8q50 -13 70 -26q20 -11 41 -30l5 -6q30 -36 38 -52q12 -26 18 -40q34 -82 55 -181
q6 -28 18 -85t18 -85l9 -46q2 -10 12 -11.5t15 6.5l24 40q44 70 50 80l15 24q43 70 77 130q7 11 20 35t19 35q94 169 158 262l7 10q20 30 36 48q18 20 36 30l3 1q41 29 89 41q24 6 53 3q32 -3 68 -17q44 -18 82 -50t64.5 -68t51 -85t39 -88.5t31.5 -90.5q17 -54 33 -119
t25 -112.5t23 -124t22 -115.5q50 -248 55 -268z" />
    <glyph glyph-name="N" unicode="N" horiz-adv-x="1462" 
d="M1255 1451q44 -8 69.5 -45t18.5 -82q-25 -157 -76 -406q-56 -276 -114 -460q-17 -53 -28 -84.5t-34 -76.5t-50 -76q-45 -51 -112 -53q-42 -2 -73 13q-25 13 -51 40q-38 40 -256 379q-69 109 -75 115q-16 20 -42 13q-25 -7 -28 -33l-5 -44q-3 -30 -9.5 -91t-10.5 -92
l-2 -15q-34 -295 -43 -428q-1 -18 -14.5 -37.5t-30.5 -31.5q-37 -26 -81 -18q-46 8 -71 46q-20 28 -17 84q11 152 42 424l2 18q7 57 16 160q25 240 44 349q14 76 39 105q29 35 75 35h2q57 -2 93 -47q66 -82 349 -508l64 -96q23 -28 55 -20q33 6 42 41q14 56 24 93
q83 326 101 417q37 188 59 324q6 38 37.5 64t71.5 26q6 0 18 -2h1z" />
    <glyph glyph-name="N" unicode="&#xf1;" horiz-adv-x="1462" 
d="M1255 1451q44 -8 69.5 -45t18.5 -82q-25 -157 -76 -406q-56 -276 -114 -460q-17 -53 -28 -84.5t-34 -76.5t-50 -76q-45 -51 -112 -53q-42 -2 -73 13q-25 13 -51 40q-38 40 -256 379q-69 109 -75 115q-16 20 -42 13q-25 -7 -28 -33l-5 -44q-3 -30 -9.5 -91t-10.5 -92
l-2 -15q-34 -295 -43 -428q-1 -18 -14.5 -37.5t-30.5 -31.5q-37 -26 -81 -18q-46 8 -71 46q-20 28 -17 84q11 152 42 424l2 18q7 57 16 160q25 240 44 349q14 76 39 105q29 35 75 35h2q57 -2 93 -47q66 -82 349 -508l64 -96q23 -28 55 -20q33 6 42 41q14 56 24 93
q83 326 101 417q37 188 59 324q6 38 37.5 64t71.5 26q6 0 18 -2h1z" />
    <glyph glyph-name="N" unicode="&#xd1;" horiz-adv-x="1462" 
d="M1255 1451q44 -8 69.5 -45t18.5 -82q-25 -157 -76 -406q-56 -276 -114 -460q-17 -53 -28 -84.5t-34 -76.5t-50 -76q-45 -51 -112 -53q-42 -2 -73 13q-25 13 -51 40q-38 40 -256 379q-69 109 -75 115q-16 20 -42 13q-25 -7 -28 -33l-5 -44q-3 -30 -9.5 -91t-10.5 -92
l-2 -15q-34 -295 -43 -428q-1 -18 -14.5 -37.5t-30.5 -31.5q-37 -26 -81 -18q-46 8 -71 46q-20 28 -17 84q11 152 42 424l2 18q7 57 16 160q25 240 44 349q14 76 39 105q29 35 75 35h2q57 -2 93 -47q66 -82 349 -508l64 -96q23 -28 55 -20q33 6 42 41q14 56 24 93
q83 326 101 417q37 188 59 324q6 38 37.5 64t71.5 26q6 0 18 -2h1z" />
    <glyph glyph-name="N" unicode="n" horiz-adv-x="1462" 
d="M1255 1451q44 -8 69.5 -45t18.5 -82q-25 -157 -76 -406q-56 -276 -114 -460q-17 -53 -28 -84.5t-34 -76.5t-50 -76q-45 -51 -112 -53q-42 -2 -73 13q-25 13 -51 40q-38 40 -256 379q-69 109 -75 115q-16 20 -42 13q-25 -7 -28 -33l-5 -44q-3 -30 -9.5 -91t-10.5 -92
l-2 -15q-34 -295 -43 -428q-1 -18 -14.5 -37.5t-30.5 -31.5q-37 -26 -81 -18q-46 8 -71 46q-20 28 -17 84q11 152 42 424l2 18q7 57 16 160q25 240 44 349q14 76 39 105q29 35 75 35h2q57 -2 93 -47q66 -82 349 -508l64 -96q23 -28 55 -20q33 6 42 41q14 56 24 93
q83 326 101 417q37 188 59 324q6 38 37.5 64t71.5 26q6 0 18 -2h1z" />
    <glyph glyph-name="O" unicode="O" horiz-adv-x="1132" 
d="M753 1038q91 -40 152.5 -115.5t86 -166t21 -188t-34.5 -189.5q-39 -115 -116 -208q-89 -109 -238 -151.5t-282 4.5q-63 23 -108.5 66t-70 94t-35.5 114t-9.5 123t11.5 124q19 121 46.5 214t78.5 161q64 86 168 125t214 25q59 -7 116 -32zM775 475q45 121 11 226
q-16 50 -55 91t-88 60q-80 30 -149 -10q-47 -28 -79.5 -71.5t-49.5 -102.5t-23.5 -97.5t-12.5 -99.5q-14 -133 51 -192q45 -40 111 -40q26 0 58 8q74 20 134.5 80.5t91.5 147.5z" />
    <glyph glyph-name="O" unicode="&#xf8;" horiz-adv-x="1132" 
d="M753 1038q91 -40 152.5 -115.5t86 -166t21 -188t-34.5 -189.5q-39 -115 -116 -208q-89 -109 -238 -151.5t-282 4.5q-63 23 -108.5 66t-70 94t-35.5 114t-9.5 123t11.5 124q19 121 46.5 214t78.5 161q64 86 168 125t214 25q59 -7 116 -32zM775 475q45 121 11 226
q-16 50 -55 91t-88 60q-80 30 -149 -10q-47 -28 -79.5 -71.5t-49.5 -102.5t-23.5 -97.5t-12.5 -99.5q-14 -133 51 -192q45 -40 111 -40q26 0 58 8q74 20 134.5 80.5t91.5 147.5z" />
    <glyph glyph-name="O" unicode="&#xf6;" horiz-adv-x="1132" 
d="M753 1038q91 -40 152.5 -115.5t86 -166t21 -188t-34.5 -189.5q-39 -115 -116 -208q-89 -109 -238 -151.5t-282 4.5q-63 23 -108.5 66t-70 94t-35.5 114t-9.5 123t11.5 124q19 121 46.5 214t78.5 161q64 86 168 125t214 25q59 -7 116 -32zM775 475q45 121 11 226
q-16 50 -55 91t-88 60q-80 30 -149 -10q-47 -28 -79.5 -71.5t-49.5 -102.5t-23.5 -97.5t-12.5 -99.5q-14 -133 51 -192q45 -40 111 -40q26 0 58 8q74 20 134.5 80.5t91.5 147.5z" />
    <glyph glyph-name="O" unicode="&#xf5;" horiz-adv-x="1132" 
d="M753 1038q91 -40 152.5 -115.5t86 -166t21 -188t-34.5 -189.5q-39 -115 -116 -208q-89 -109 -238 -151.5t-282 4.5q-63 23 -108.5 66t-70 94t-35.5 114t-9.5 123t11.5 124q19 121 46.5 214t78.5 161q64 86 168 125t214 25q59 -7 116 -32zM775 475q45 121 11 226
q-16 50 -55 91t-88 60q-80 30 -149 -10q-47 -28 -79.5 -71.5t-49.5 -102.5t-23.5 -97.5t-12.5 -99.5q-14 -133 51 -192q45 -40 111 -40q26 0 58 8q74 20 134.5 80.5t91.5 147.5z" />
    <glyph glyph-name="O" unicode="&#xf4;" horiz-adv-x="1132" 
d="M753 1038q91 -40 152.5 -115.5t86 -166t21 -188t-34.5 -189.5q-39 -115 -116 -208q-89 -109 -238 -151.5t-282 4.5q-63 23 -108.5 66t-70 94t-35.5 114t-9.5 123t11.5 124q19 121 46.5 214t78.5 161q64 86 168 125t214 25q59 -7 116 -32zM775 475q45 121 11 226
q-16 50 -55 91t-88 60q-80 30 -149 -10q-47 -28 -79.5 -71.5t-49.5 -102.5t-23.5 -97.5t-12.5 -99.5q-14 -133 51 -192q45 -40 111 -40q26 0 58 8q74 20 134.5 80.5t91.5 147.5z" />
    <glyph glyph-name="O" unicode="&#xf3;" horiz-adv-x="1132" 
d="M753 1038q91 -40 152.5 -115.5t86 -166t21 -188t-34.5 -189.5q-39 -115 -116 -208q-89 -109 -238 -151.5t-282 4.5q-63 23 -108.5 66t-70 94t-35.5 114t-9.5 123t11.5 124q19 121 46.5 214t78.5 161q64 86 168 125t214 25q59 -7 116 -32zM775 475q45 121 11 226
q-16 50 -55 91t-88 60q-80 30 -149 -10q-47 -28 -79.5 -71.5t-49.5 -102.5t-23.5 -97.5t-12.5 -99.5q-14 -133 51 -192q45 -40 111 -40q26 0 58 8q74 20 134.5 80.5t91.5 147.5z" />
    <glyph glyph-name="O" unicode="&#xf2;" horiz-adv-x="1132" 
d="M753 1038q91 -40 152.5 -115.5t86 -166t21 -188t-34.5 -189.5q-39 -115 -116 -208q-89 -109 -238 -151.5t-282 4.5q-63 23 -108.5 66t-70 94t-35.5 114t-9.5 123t11.5 124q19 121 46.5 214t78.5 161q64 86 168 125t214 25q59 -7 116 -32zM775 475q45 121 11 226
q-16 50 -55 91t-88 60q-80 30 -149 -10q-47 -28 -79.5 -71.5t-49.5 -102.5t-23.5 -97.5t-12.5 -99.5q-14 -133 51 -192q45 -40 111 -40q26 0 58 8q74 20 134.5 80.5t91.5 147.5z" />
    <glyph glyph-name="O" unicode="&#xd8;" horiz-adv-x="1132" 
d="M753 1038q91 -40 152.5 -115.5t86 -166t21 -188t-34.5 -189.5q-39 -115 -116 -208q-89 -109 -238 -151.5t-282 4.5q-63 23 -108.5 66t-70 94t-35.5 114t-9.5 123t11.5 124q19 121 46.5 214t78.5 161q64 86 168 125t214 25q59 -7 116 -32zM775 475q45 121 11 226
q-16 50 -55 91t-88 60q-80 30 -149 -10q-47 -28 -79.5 -71.5t-49.5 -102.5t-23.5 -97.5t-12.5 -99.5q-14 -133 51 -192q45 -40 111 -40q26 0 58 8q74 20 134.5 80.5t91.5 147.5z" />
    <glyph glyph-name="O" unicode="&#xd6;" horiz-adv-x="1132" 
d="M753 1038q91 -40 152.5 -115.5t86 -166t21 -188t-34.5 -189.5q-39 -115 -116 -208q-89 -109 -238 -151.5t-282 4.5q-63 23 -108.5 66t-70 94t-35.5 114t-9.5 123t11.5 124q19 121 46.5 214t78.5 161q64 86 168 125t214 25q59 -7 116 -32zM775 475q45 121 11 226
q-16 50 -55 91t-88 60q-80 30 -149 -10q-47 -28 -79.5 -71.5t-49.5 -102.5t-23.5 -97.5t-12.5 -99.5q-14 -133 51 -192q45 -40 111 -40q26 0 58 8q74 20 134.5 80.5t91.5 147.5z" />
    <glyph glyph-name="O" unicode="&#xd5;" horiz-adv-x="1132" 
d="M753 1038q91 -40 152.5 -115.5t86 -166t21 -188t-34.5 -189.5q-39 -115 -116 -208q-89 -109 -238 -151.5t-282 4.5q-63 23 -108.5 66t-70 94t-35.5 114t-9.5 123t11.5 124q19 121 46.5 214t78.5 161q64 86 168 125t214 25q59 -7 116 -32zM775 475q45 121 11 226
q-16 50 -55 91t-88 60q-80 30 -149 -10q-47 -28 -79.5 -71.5t-49.5 -102.5t-23.5 -97.5t-12.5 -99.5q-14 -133 51 -192q45 -40 111 -40q26 0 58 8q74 20 134.5 80.5t91.5 147.5z" />
    <glyph glyph-name="O" unicode="&#xd4;" horiz-adv-x="1132" 
d="M753 1038q91 -40 152.5 -115.5t86 -166t21 -188t-34.5 -189.5q-39 -115 -116 -208q-89 -109 -238 -151.5t-282 4.5q-63 23 -108.5 66t-70 94t-35.5 114t-9.5 123t11.5 124q19 121 46.5 214t78.5 161q64 86 168 125t214 25q59 -7 116 -32zM775 475q45 121 11 226
q-16 50 -55 91t-88 60q-80 30 -149 -10q-47 -28 -79.5 -71.5t-49.5 -102.5t-23.5 -97.5t-12.5 -99.5q-14 -133 51 -192q45 -40 111 -40q26 0 58 8q74 20 134.5 80.5t91.5 147.5z" />
    <glyph glyph-name="O" unicode="&#xd3;" horiz-adv-x="1132" 
d="M753 1038q91 -40 152.5 -115.5t86 -166t21 -188t-34.5 -189.5q-39 -115 -116 -208q-89 -109 -238 -151.5t-282 4.5q-63 23 -108.5 66t-70 94t-35.5 114t-9.5 123t11.5 124q19 121 46.5 214t78.5 161q64 86 168 125t214 25q59 -7 116 -32zM775 475q45 121 11 226
q-16 50 -55 91t-88 60q-80 30 -149 -10q-47 -28 -79.5 -71.5t-49.5 -102.5t-23.5 -97.5t-12.5 -99.5q-14 -133 51 -192q45 -40 111 -40q26 0 58 8q74 20 134.5 80.5t91.5 147.5z" />
    <glyph glyph-name="O" unicode="&#xd2;" horiz-adv-x="1132" 
d="M753 1038q91 -40 152.5 -115.5t86 -166t21 -188t-34.5 -189.5q-39 -115 -116 -208q-89 -109 -238 -151.5t-282 4.5q-63 23 -108.5 66t-70 94t-35.5 114t-9.5 123t11.5 124q19 121 46.5 214t78.5 161q64 86 168 125t214 25q59 -7 116 -32zM775 475q45 121 11 226
q-16 50 -55 91t-88 60q-80 30 -149 -10q-47 -28 -79.5 -71.5t-49.5 -102.5t-23.5 -97.5t-12.5 -99.5q-14 -133 51 -192q45 -40 111 -40q26 0 58 8q74 20 134.5 80.5t91.5 147.5z" />
    <glyph glyph-name="O" unicode="o" horiz-adv-x="1132" 
d="M753 1038q91 -40 152.5 -115.5t86 -166t21 -188t-34.5 -189.5q-39 -115 -116 -208q-89 -109 -238 -151.5t-282 4.5q-63 23 -108.5 66t-70 94t-35.5 114t-9.5 123t11.5 124q19 121 46.5 214t78.5 161q64 86 168 125t214 25q59 -7 116 -32zM775 475q45 121 11 226
q-16 50 -55 91t-88 60q-80 30 -149 -10q-47 -28 -79.5 -71.5t-49.5 -102.5t-23.5 -97.5t-12.5 -99.5q-14 -133 51 -192q45 -40 111 -40q26 0 58 8q74 20 134.5 80.5t91.5 147.5z" />
    <glyph glyph-name="P" unicode="P" horiz-adv-x="1210" 
d="M1063 1130q31 -63 27 -162q-6 -130 -63 -221q-62 -99 -216 -177q-107 -54 -318 -125l-17 -6l32 -307q8 -77 -7 -115q-14 -34 -42.5 -50.5t-59.5 -16.5h-1q-31 0 -59.5 16t-42.5 49q-12 31 -18 98q-30 362 -85 734q-7 41 -16 59t-28 40q-21 27 -22 28q-13 30 -4.5 61
t31.5 55q35 36 126 70q236 88 416 107q39 4 80 4q72 0 127 -16q110 -33 157 -118q0 -1 1 -3.5t2 -3.5zM860 938q5 18 7 33q1 17 -8 36q-23 42 -96 36q-170 -15 -330 -77q-12 -4 -18.5 -16t-4.5 -25q4 -27 13 -90q11 -82 14 -101q3 -22 22 -35q13 -9 29 -9q4 0 12 2
q98 22 169.5 52.5t128.5 88.5q43 45 62 105z" />
    <glyph glyph-name="P" unicode="p" horiz-adv-x="1210" 
d="M1063 1130q31 -63 27 -162q-6 -130 -63 -221q-62 -99 -216 -177q-107 -54 -318 -125l-17 -6l32 -307q8 -77 -7 -115q-14 -34 -42.5 -50.5t-59.5 -16.5h-1q-31 0 -59.5 16t-42.5 49q-12 31 -18 98q-30 362 -85 734q-7 41 -16 59t-28 40q-21 27 -22 28q-13 30 -4.5 61
t31.5 55q35 36 126 70q236 88 416 107q39 4 80 4q72 0 127 -16q110 -33 157 -118q0 -1 1 -3.5t2 -3.5zM860 938q5 18 7 33q1 17 -8 36q-23 42 -96 36q-170 -15 -330 -77q-12 -4 -18.5 -16t-4.5 -25q4 -27 13 -90q11 -82 14 -101q3 -22 22 -35q13 -9 29 -9q4 0 12 2
q98 22 169.5 52.5t128.5 88.5q43 45 62 105z" />
    <glyph glyph-name="Q" unicode="Q" horiz-adv-x="1492" 
d="M1337 131q31 -23 36 -71q4 -42 -25 -78q-28 -32 -71 -37h-9q-35 0 -70 25q-61 44 -87 68q-61 52 -68 58l-11 9l-5 -3q-31 -20 -70 -38q-94 -43 -208.5 -60.5t-239.5 -0.5t-220 73q-73 43 -115 110t-51 140t2 153t36.5 149.5t61.5 130.5q88 150 304 279q182 110 390 18
q131 -59 229 -181t126 -262q6 -29 8 -69q5 -149 -90 -285l-4 -6l6 -5q29 -23 56 -48q24 -21 89 -69zM1074 445q16 60 -5 152q-21 88 -82.5 173.5t-134.5 112.5q-37 14 -78 14q-135 0 -273 -126q-92 -84 -144.5 -195.5t-26.5 -209.5q21 -78 105 -126.5t180 -53.5
q121 -6 243 51l11 5l-9 8q-9 8 -36 31.5t-43 37.5q-33 30 -36.5 73.5t24.5 76.5q32 37 82 37q39 0 67 -25q113 -100 114 -101l7 -6l5 8q21 32 30 63z" />
    <glyph glyph-name="Q" unicode="q" horiz-adv-x="1492" 
d="M1337 131q31 -23 36 -71q4 -42 -25 -78q-28 -32 -71 -37h-9q-35 0 -70 25q-61 44 -87 68q-61 52 -68 58l-11 9l-5 -3q-31 -20 -70 -38q-94 -43 -208.5 -60.5t-239.5 -0.5t-220 73q-73 43 -115 110t-51 140t2 153t36.5 149.5t61.5 130.5q88 150 304 279q182 110 390 18
q131 -59 229 -181t126 -262q6 -29 8 -69q5 -149 -90 -285l-4 -6l6 -5q29 -23 56 -48q24 -21 89 -69zM1074 445q16 60 -5 152q-21 88 -82.5 173.5t-134.5 112.5q-37 14 -78 14q-135 0 -273 -126q-92 -84 -144.5 -195.5t-26.5 -209.5q21 -78 105 -126.5t180 -53.5
q121 -6 243 51l11 5l-9 8q-9 8 -36 31.5t-43 37.5q-33 30 -36.5 73.5t24.5 76.5q32 37 82 37q39 0 67 -25q113 -100 114 -101l7 -6l5 8q21 32 30 63z" />
    <glyph glyph-name="R" unicode="R" horiz-adv-x="1368" 
d="M1227 167q31 -36 18.5 -90t-60.5 -68q-11 -6 -34.5 -3.5t-40.5 5.5t-43.5 11.5t-43.5 14.5t-40 15t-34 13q-241 85 -448 246l11 -167q6 -50 -16 -80q-24 -35 -74 -42t-85 17q-36 25 -40 58q-4 40 -12.5 121t-12.5 121l-1 6q-39 375 -64 592l-3 33l-30 14q-6 2 -13 7
q-32 23 -40 62q-4 19 -0.5 40t11.5 30l22 25q186 207 461 358q60 33 119 47.5t123 2t110 -59.5q40 -42 59.5 -103.5t18.5 -120.5t-15 -117q-81 -327 -301 -675l-13 -23q-12 -22 9 -38l22 -16q32 -23 73.5 -45.5t72 -36.5t82.5 -36t76 -33q14 -6 55 -20.5t62 -24.5
q42 -19 59 -40zM537 584q89 145 150 276q86 181 132 361l1 4q8 45 -24 79t-77 29q-42 -4 -100 -51q-19 -15 -78 -58.5t-89 -71.5q-2 -3 -7 -8.5t-8 -7.5l-29 -28l3 -29l67 -591q-1 9 11 28.5t28.5 41t19.5 26.5z" />
    <glyph glyph-name="R" unicode="r" horiz-adv-x="1368" 
d="M1227 167q31 -36 18.5 -90t-60.5 -68q-11 -6 -34.5 -3.5t-40.5 5.5t-43.5 11.5t-43.5 14.5t-40 15t-34 13q-241 85 -448 246l11 -167q6 -50 -16 -80q-24 -35 -74 -42t-85 17q-36 25 -40 58q-4 40 -12.5 121t-12.5 121l-1 6q-39 375 -64 592l-3 33l-30 14q-6 2 -13 7
q-32 23 -40 62q-4 19 -0.5 40t11.5 30l22 25q186 207 461 358q60 33 119 47.5t123 2t110 -59.5q40 -42 59.5 -103.5t18.5 -120.5t-15 -117q-81 -327 -301 -675l-13 -23q-12 -22 9 -38l22 -16q32 -23 73.5 -45.5t72 -36.5t82.5 -36t76 -33q14 -6 55 -20.5t62 -24.5
q42 -19 59 -40zM537 584q89 145 150 276q86 181 132 361l1 4q8 45 -24 79t-77 29q-42 -4 -100 -51q-19 -15 -78 -58.5t-89 -71.5q-2 -3 -7 -8.5t-8 -7.5l-29 -28l3 -29l67 -591q-1 9 11 28.5t28.5 41t19.5 26.5z" />
    <glyph glyph-name="S" unicode="S" horiz-adv-x="1026" 
d="M896 1285q19 -40 1 -83.5t-58 -74.5q-28 -20 -99 -54q-64 -30 -89 -46q-29 -19 -36 -41q-10 -31 25 -75q109 -139 145 -301.5t-10 -302.5q-33 -103 -112.5 -181t-181 -110.5t-196.5 -7.5q-94 24 -140 92q-24 36 -26 78t19 74q24 35 68 43q12 2 17 2q27 0 47 -15
q13 -10 24 -22q32 -32 51 -40q55 -24 122 24q45 32 72 71t38 75t6.5 83.5t-13 81.5t-31 85t-37.5 78.5t-42 75.5q-2 3 -11.5 20t-14.5 26q-19 35 -31.5 62.5t-21.5 59t-8.5 60.5t12.5 54q21 45 89 92q86 61 182 115q80 45 131 49q31 2 61.5 -8.5t45.5 -35.5z" />
    <glyph glyph-name="S" unicode="s" horiz-adv-x="1026" 
d="M896 1285q19 -40 1 -83.5t-58 -74.5q-28 -20 -99 -54q-64 -30 -89 -46q-29 -19 -36 -41q-10 -31 25 -75q109 -139 145 -301.5t-10 -302.5q-33 -103 -112.5 -181t-181 -110.5t-196.5 -7.5q-94 24 -140 92q-24 36 -26 78t19 74q24 35 68 43q12 2 17 2q27 0 47 -15
q13 -10 24 -22q32 -32 51 -40q55 -24 122 24q45 32 72 71t38 75t6.5 83.5t-13 81.5t-31 85t-37.5 78.5t-42 75.5q-2 3 -11.5 20t-14.5 26q-19 35 -31.5 62.5t-21.5 59t-8.5 60.5t12.5 54q21 45 89 92q86 61 182 115q80 45 131 49q31 2 61.5 -8.5t45.5 -35.5z" />
    <glyph glyph-name="T" unicode="T" horiz-adv-x="1267" 
d="M1214 1061q11 -44 -14 -85q-23 -38 -65 -48q-72 -16 -161 -44q-44 -14 -84 -30l-9 -4q-14 -6 -41 -17.5t-41 -16.5l-45 -19l4 -32q43 -419 46 -817q0 -43 -32 -75q-34 -34 -78 -34q-45 0 -77 32.5t-32 78.5q-1 319 -35 693l-6 64l-57 -28q-33 -16 -93 -46.5t-78 -39.5
l-34 -17q-42 -21 -85 -8.5t-65 51.5q-22 41 -8 87q12 42 50 61q129 65 231 115l41 20q28 14 133 59q10 4 29.5 12.5t28.5 12.5q101 44 223 89q101 38 219 66q9 2 27 2q39 0 69 -23t39 -59z" />
    <glyph glyph-name="T" unicode="t" horiz-adv-x="1267" 
d="M1214 1061q11 -44 -14 -85q-23 -38 -65 -48q-72 -16 -161 -44q-44 -14 -84 -30l-9 -4q-14 -6 -41 -17.5t-41 -16.5l-45 -19l4 -32q43 -419 46 -817q0 -43 -32 -75q-34 -34 -78 -34q-45 0 -77 32.5t-32 78.5q-1 319 -35 693l-6 64l-57 -28q-33 -16 -93 -46.5t-78 -39.5
l-34 -17q-42 -21 -85 -8.5t-65 51.5q-22 41 -8 87q12 42 50 61q129 65 231 115l41 20q28 14 133 59q10 4 29.5 12.5t28.5 12.5q101 44 223 89q101 38 219 66q9 2 27 2q39 0 69 -23t39 -59z" />
    <glyph glyph-name="U" unicode="U" horiz-adv-x="1255" 
d="M1131 957q6 -33 6 -79q0 -89 -1.5 -139.5t-9.5 -130t-28 -147t-52 -127.5q-104 -193 -242 -267q-156 -86 -300 -32q-99 37 -182 137t-139 250q-79 212 -61 460q8 110 51 155q35 38 91 38q8 0 22 -2q31 -6 56 -26.5t36 -49.5q15 -38 5 -134q-1 -5 -2 -15.5t-1 -15.5
q-4 -45 -4 -94.5t7 -119.5t33 -140t68 -123q47 -59 101 -68q93 -15 157 40q134 115 133 531v17q0 100 20 137q29 53 98 59t106 -40q23 -27 32 -74z" />
    <glyph glyph-name="U" unicode="&#xfc;" horiz-adv-x="1255" 
d="M1131 957q6 -33 6 -79q0 -89 -1.5 -139.5t-9.5 -130t-28 -147t-52 -127.5q-104 -193 -242 -267q-156 -86 -300 -32q-99 37 -182 137t-139 250q-79 212 -61 460q8 110 51 155q35 38 91 38q8 0 22 -2q31 -6 56 -26.5t36 -49.5q15 -38 5 -134q-1 -5 -2 -15.5t-1 -15.5
q-4 -45 -4 -94.5t7 -119.5t33 -140t68 -123q47 -59 101 -68q93 -15 157 40q134 115 133 531v17q0 100 20 137q29 53 98 59t106 -40q23 -27 32 -74z" />
    <glyph glyph-name="U" unicode="&#xfb;" horiz-adv-x="1255" 
d="M1131 957q6 -33 6 -79q0 -89 -1.5 -139.5t-9.5 -130t-28 -147t-52 -127.5q-104 -193 -242 -267q-156 -86 -300 -32q-99 37 -182 137t-139 250q-79 212 -61 460q8 110 51 155q35 38 91 38q8 0 22 -2q31 -6 56 -26.5t36 -49.5q15 -38 5 -134q-1 -5 -2 -15.5t-1 -15.5
q-4 -45 -4 -94.5t7 -119.5t33 -140t68 -123q47 -59 101 -68q93 -15 157 40q134 115 133 531v17q0 100 20 137q29 53 98 59t106 -40q23 -27 32 -74z" />
    <glyph glyph-name="U" unicode="&#xfa;" horiz-adv-x="1255" 
d="M1131 957q6 -33 6 -79q0 -89 -1.5 -139.5t-9.5 -130t-28 -147t-52 -127.5q-104 -193 -242 -267q-156 -86 -300 -32q-99 37 -182 137t-139 250q-79 212 -61 460q8 110 51 155q35 38 91 38q8 0 22 -2q31 -6 56 -26.5t36 -49.5q15 -38 5 -134q-1 -5 -2 -15.5t-1 -15.5
q-4 -45 -4 -94.5t7 -119.5t33 -140t68 -123q47 -59 101 -68q93 -15 157 40q134 115 133 531v17q0 100 20 137q29 53 98 59t106 -40q23 -27 32 -74z" />
    <glyph glyph-name="U" unicode="&#xf9;" horiz-adv-x="1255" 
d="M1131 957q6 -33 6 -79q0 -89 -1.5 -139.5t-9.5 -130t-28 -147t-52 -127.5q-104 -193 -242 -267q-156 -86 -300 -32q-99 37 -182 137t-139 250q-79 212 -61 460q8 110 51 155q35 38 91 38q8 0 22 -2q31 -6 56 -26.5t36 -49.5q15 -38 5 -134q-1 -5 -2 -15.5t-1 -15.5
q-4 -45 -4 -94.5t7 -119.5t33 -140t68 -123q47 -59 101 -68q93 -15 157 40q134 115 133 531v17q0 100 20 137q29 53 98 59t106 -40q23 -27 32 -74z" />
    <glyph glyph-name="U" unicode="&#xdc;" horiz-adv-x="1255" 
d="M1131 957q6 -33 6 -79q0 -89 -1.5 -139.5t-9.5 -130t-28 -147t-52 -127.5q-104 -193 -242 -267q-156 -86 -300 -32q-99 37 -182 137t-139 250q-79 212 -61 460q8 110 51 155q35 38 91 38q8 0 22 -2q31 -6 56 -26.5t36 -49.5q15 -38 5 -134q-1 -5 -2 -15.5t-1 -15.5
q-4 -45 -4 -94.5t7 -119.5t33 -140t68 -123q47 -59 101 -68q93 -15 157 40q134 115 133 531v17q0 100 20 137q29 53 98 59t106 -40q23 -27 32 -74z" />
    <glyph glyph-name="U" unicode="&#xdb;" horiz-adv-x="1255" 
d="M1131 957q6 -33 6 -79q0 -89 -1.5 -139.5t-9.5 -130t-28 -147t-52 -127.5q-104 -193 -242 -267q-156 -86 -300 -32q-99 37 -182 137t-139 250q-79 212 -61 460q8 110 51 155q35 38 91 38q8 0 22 -2q31 -6 56 -26.5t36 -49.5q15 -38 5 -134q-1 -5 -2 -15.5t-1 -15.5
q-4 -45 -4 -94.5t7 -119.5t33 -140t68 -123q47 -59 101 -68q93 -15 157 40q134 115 133 531v17q0 100 20 137q29 53 98 59t106 -40q23 -27 32 -74z" />
    <glyph glyph-name="U" unicode="&#xda;" horiz-adv-x="1255" 
d="M1131 957q6 -33 6 -79q0 -89 -1.5 -139.5t-9.5 -130t-28 -147t-52 -127.5q-104 -193 -242 -267q-156 -86 -300 -32q-99 37 -182 137t-139 250q-79 212 -61 460q8 110 51 155q35 38 91 38q8 0 22 -2q31 -6 56 -26.5t36 -49.5q15 -38 5 -134q-1 -5 -2 -15.5t-1 -15.5
q-4 -45 -4 -94.5t7 -119.5t33 -140t68 -123q47 -59 101 -68q93 -15 157 40q134 115 133 531v17q0 100 20 137q29 53 98 59t106 -40q23 -27 32 -74z" />
    <glyph glyph-name="U" unicode="&#xd9;" horiz-adv-x="1255" 
d="M1131 957q6 -33 6 -79q0 -89 -1.5 -139.5t-9.5 -130t-28 -147t-52 -127.5q-104 -193 -242 -267q-156 -86 -300 -32q-99 37 -182 137t-139 250q-79 212 -61 460q8 110 51 155q35 38 91 38q8 0 22 -2q31 -6 56 -26.5t36 -49.5q15 -38 5 -134q-1 -5 -2 -15.5t-1 -15.5
q-4 -45 -4 -94.5t7 -119.5t33 -140t68 -123q47 -59 101 -68q93 -15 157 40q134 115 133 531v17q0 100 20 137q29 53 98 59t106 -40q23 -27 32 -74z" />
    <glyph glyph-name="U" unicode="u" horiz-adv-x="1255" 
d="M1131 957q6 -33 6 -79q0 -89 -1.5 -139.5t-9.5 -130t-28 -147t-52 -127.5q-104 -193 -242 -267q-156 -86 -300 -32q-99 37 -182 137t-139 250q-79 212 -61 460q8 110 51 155q35 38 91 38q8 0 22 -2q31 -6 56 -26.5t36 -49.5q15 -38 5 -134q-1 -5 -2 -15.5t-1 -15.5
q-4 -45 -4 -94.5t7 -119.5t33 -140t68 -123q47 -59 101 -68q93 -15 157 40q134 115 133 531v17q0 100 20 137q29 53 98 59t106 -40q23 -27 32 -74z" />
    <glyph glyph-name="V" unicode="V" horiz-adv-x="1261" 
d="M1077 1078q29 -14 47 -42t19 -60q0 -46 -62.5 -243.5t-148.5 -406t-139 -264.5q-40 -42 -84 -55q-22 -7 -45 -7q-29 0 -56 10.5t-51.5 32.5t-37.5 37t-34 41l-313 392q-55 68 -53 117q2 48 40 82q37 32 86 26q39 -5 70 -32t66 -74q114 -157 257 -325q6 -8 17 -6
q11 1 14 12q128 339 223 638q27 85 65 115q49 38 110 16q8 -3 10 -4z" />
    <glyph glyph-name="V" unicode="v" horiz-adv-x="1261" 
d="M1077 1078q29 -14 47 -42t19 -60q0 -46 -62.5 -243.5t-148.5 -406t-139 -264.5q-40 -42 -84 -55q-22 -7 -45 -7q-29 0 -56 10.5t-51.5 32.5t-37.5 37t-34 41l-313 392q-55 68 -53 117q2 48 40 82q37 32 86 26q39 -5 70 -32t66 -74q114 -157 257 -325q6 -8 17 -6
q11 1 14 12q128 339 223 638q27 85 65 115q49 38 110 16q8 -3 10 -4z" />
    <glyph glyph-name="W" unicode="W" horiz-adv-x="1732" 
d="M1590 915q23 -27 24 -72q0 -13 -1 -20q-14 -71 -44 -157.5t-50.5 -136t-65.5 -152.5l-8 -19q-38 -89 -81 -166q-46 -82 -87.5 -110t-107.5 -7q-25 8 -46 23.5t-40.5 42t-29 42.5t-29.5 52q-14 26 -21 38q-6 10 -26 50q-29 60 -50 91q-17 26 -51 26q-32 0 -51 -27
q-18 -27 -39 -55l-36 -48q-86 -115 -118 -152l-9 -11q-30 -35 -47.5 -54t-50 -50t-57.5 -47.5t-59 -29.5t-66 -13h-3q-73 2 -124 62q-38 44 -54 100t-25 130q-26 212 -13 609q2 50 7.5 81t23.5 54q31 41 81 41h3q52 -2 82 -46q19 -28 21.5 -72t-2.5 -82q-5 -62 -8.5 -179.5
t2 -248t25.5 -149.5q13 -11 29 -10q28 2 76.5 52.5t129.5 163.5q2 3 5.5 7.5t4.5 5.5q42 58 61 87q46 68 58 84q38 51 95 62q65 13 100 -7q28 -16 64 -55.5t59.5 -70.5t60.5 -84q31 -46 56 -77q17 -22 46 -19q27 3 39 30q26 62 77.5 199.5t57.5 158.5q14 51 32.5 94.5
t28.5 52.5q34 29 78 26q43 -3 73 -38z" />
    <glyph glyph-name="W" unicode="w" horiz-adv-x="1732" 
d="M1590 915q23 -27 24 -72q0 -13 -1 -20q-14 -71 -44 -157.5t-50.5 -136t-65.5 -152.5l-8 -19q-38 -89 -81 -166q-46 -82 -87.5 -110t-107.5 -7q-25 8 -46 23.5t-40.5 42t-29 42.5t-29.5 52q-14 26 -21 38q-6 10 -26 50q-29 60 -50 91q-17 26 -51 26q-32 0 -51 -27
q-18 -27 -39 -55l-36 -48q-86 -115 -118 -152l-9 -11q-30 -35 -47.5 -54t-50 -50t-57.5 -47.5t-59 -29.5t-66 -13h-3q-73 2 -124 62q-38 44 -54 100t-25 130q-26 212 -13 609q2 50 7.5 81t23.5 54q31 41 81 41h3q52 -2 82 -46q19 -28 21.5 -72t-2.5 -82q-5 -62 -8.5 -179.5
t2 -248t25.5 -149.5q13 -11 29 -10q28 2 76.5 52.5t129.5 163.5q2 3 5.5 7.5t4.5 5.5q42 58 61 87q46 68 58 84q38 51 95 62q65 13 100 -7q28 -16 64 -55.5t59.5 -70.5t60.5 -84q31 -46 56 -77q17 -22 46 -19q27 3 39 30q26 62 77.5 199.5t57.5 158.5q14 51 32.5 94.5
t28.5 52.5q34 29 78 26q43 -3 73 -38z" />
    <glyph glyph-name="X" unicode="X" horiz-adv-x="1101" 
d="M968 866q-142 -184 -212 -277q-12 -16 -84 -119q179 -214 245 -289q31 -34 31 -75q0 -46 -33 -77q-31 -30 -76.5 -30.5t-75.5 31.5q-45 50 -215 254q-9 -15 -29 -45.5t-29 -46.5q-97 -155 -143 -242q-20 -38 -65.5 -49t-81.5 11q-38 23 -48.5 65.5t10.5 81.5
q50 94 143 243q64 102 98 153q-83 98 -253 290q-31 34 -31 75q0 47 32 77q36 35 87 30q40 -3 65 -31q103 -115 225 -257q14 20 44 60q79 105 211 276q16 26 39 39l25 10q21 5 38 4q21 -1 45 -15q38 -22 49 -64q14 -52 -11 -83z" />
    <glyph glyph-name="X" unicode="x" horiz-adv-x="1101" 
d="M968 866q-142 -184 -212 -277q-12 -16 -84 -119q179 -214 245 -289q31 -34 31 -75q0 -46 -33 -77q-31 -30 -76.5 -30.5t-75.5 31.5q-45 50 -215 254q-9 -15 -29 -45.5t-29 -46.5q-97 -155 -143 -242q-20 -38 -65.5 -49t-81.5 11q-38 23 -48.5 65.5t10.5 81.5
q50 94 143 243q64 102 98 153q-83 98 -253 290q-31 34 -31 75q0 47 32 77q36 35 87 30q40 -3 65 -31q103 -115 225 -257q14 20 44 60q79 105 211 276q16 26 39 39l25 10q21 5 38 4q21 -1 45 -15q38 -22 49 -64q14 -52 -11 -83z" />
    <glyph glyph-name="Y" unicode="Y" horiz-adv-x="1239" 
d="M1168 1303q24 -14 38.5 -40t13.5 -54q-1 -34 -33 -96q-315 -626 -562 -1279q-23 -61 -44.5 -91.5t-60.5 -42.5q-12 -4 -29 -4q-61 0 -92 52q-14 24 -14.5 53t6.5 53t23 62l237 564q9 21 1 43t-28 33q-206 113 -402 255q-50 36 -76 67.5t-27 73.5q-1 30 14 57t41 42
q29 17 62 17q63 0 139 -56q218 -163 344 -227q20 -11 41 -3q22 8 31 28q84 185 199 401q37 69 68 89q54 35 108 4z" />
    <glyph glyph-name="Y" unicode="&#x178;" horiz-adv-x="1239" 
d="M1168 1303q24 -14 38.5 -40t13.5 -54q-1 -34 -33 -96q-315 -626 -562 -1279q-23 -61 -44.5 -91.5t-60.5 -42.5q-12 -4 -29 -4q-61 0 -92 52q-14 24 -14.5 53t6.5 53t23 62l237 564q9 21 1 43t-28 33q-206 113 -402 255q-50 36 -76 67.5t-27 73.5q-1 30 14 57t41 42
q29 17 62 17q63 0 139 -56q218 -163 344 -227q20 -11 41 -3q22 8 31 28q84 185 199 401q37 69 68 89q54 35 108 4z" />
    <glyph glyph-name="Y" unicode="&#xff;" horiz-adv-x="1239" 
d="M1168 1303q24 -14 38.5 -40t13.5 -54q-1 -34 -33 -96q-315 -626 -562 -1279q-23 -61 -44.5 -91.5t-60.5 -42.5q-12 -4 -29 -4q-61 0 -92 52q-14 24 -14.5 53t6.5 53t23 62l237 564q9 21 1 43t-28 33q-206 113 -402 255q-50 36 -76 67.5t-27 73.5q-1 30 14 57t41 42
q29 17 62 17q63 0 139 -56q218 -163 344 -227q20 -11 41 -3q22 8 31 28q84 185 199 401q37 69 68 89q54 35 108 4z" />
    <glyph glyph-name="Y" unicode="&#xfd;" horiz-adv-x="1239" 
d="M1168 1303q24 -14 38.5 -40t13.5 -54q-1 -34 -33 -96q-315 -626 -562 -1279q-23 -61 -44.5 -91.5t-60.5 -42.5q-12 -4 -29 -4q-61 0 -92 52q-14 24 -14.5 53t6.5 53t23 62l237 564q9 21 1 43t-28 33q-206 113 -402 255q-50 36 -76 67.5t-27 73.5q-1 30 14 57t41 42
q29 17 62 17q63 0 139 -56q218 -163 344 -227q20 -11 41 -3q22 8 31 28q84 185 199 401q37 69 68 89q54 35 108 4z" />
    <glyph glyph-name="Y" unicode="&#xdd;" horiz-adv-x="1239" 
d="M1168 1303q24 -14 38.5 -40t13.5 -54q-1 -34 -33 -96q-315 -626 -562 -1279q-23 -61 -44.5 -91.5t-60.5 -42.5q-12 -4 -29 -4q-61 0 -92 52q-14 24 -14.5 53t6.5 53t23 62l237 564q9 21 1 43t-28 33q-206 113 -402 255q-50 36 -76 67.5t-27 73.5q-1 30 14 57t41 42
q29 17 62 17q63 0 139 -56q218 -163 344 -227q20 -11 41 -3q22 8 31 28q84 185 199 401q37 69 68 89q54 35 108 4z" />
    <glyph glyph-name="Y" unicode="y" horiz-adv-x="1239" 
d="M1168 1303q24 -14 38.5 -40t13.5 -54q-1 -34 -33 -96q-315 -626 -562 -1279q-23 -61 -44.5 -91.5t-60.5 -42.5q-12 -4 -29 -4q-61 0 -92 52q-14 24 -14.5 53t6.5 53t23 62l237 564q9 21 1 43t-28 33q-206 113 -402 255q-50 36 -76 67.5t-27 73.5q-1 30 14 57t41 42
q29 17 62 17q63 0 139 -56q218 -163 344 -227q20 -11 41 -3q22 8 31 28q84 185 199 401q37 69 68 89q54 35 108 4z" />
    <glyph glyph-name="Z" unicode="Z" horiz-adv-x="1163" 
d="M1017 187q29 -32 27 -75q-5 -91 -128 -100q-129 -8 -197 -9q-184 -4 -297 36q-84 30 -117 81q-41 63 -16 157q14 55 73 159q4 7 18.5 33t21.5 40q29 58 89 174l5 9l21 43q2 6 8 17.5t8 17.5q16 38 -12 69t-67 18l-13.5 -4.5t-16.5 -5t-15 -4.5q-39 -16 -137 -61
q-45 -20 -83 -7q-40 13 -59 51q-21 39 -5 84q14 39 48 55q156 72 254 100l60 17q32 8 49 11h2q48 8 69 7q40 -1 70 -14q22 -9 36 -18q11 -8 31 -28q12 -12 28 -56l3 -7q1 -2 2 -6.5t1 -5.5l2 -12q5 -37 3 -57q-8 -78 -35 -147q-18 -48 -53 -118q-32 -66 -78 -146
q-47 -84 -59 -108l-1 1l-5 -11q-2 -5 -6.5 -14.5t-8.5 -17.5t-7 -15q-15 -34 3 -66q19 -32 56 -37q45 -5 134 -3q7 0 19 0.5t19 0.5q24 0 70 4q108 8 144 -4q23 -7 42 -28z" />
    <glyph glyph-name="Z" unicode="z" horiz-adv-x="1163" 
d="M1017 187q29 -32 27 -75q-5 -91 -128 -100q-129 -8 -197 -9q-184 -4 -297 36q-84 30 -117 81q-41 63 -16 157q14 55 73 159q4 7 18.5 33t21.5 40q29 58 89 174l5 9l21 43q2 6 8 17.5t8 17.5q16 38 -12 69t-67 18l-13.5 -4.5t-16.5 -5t-15 -4.5q-39 -16 -137 -61
q-45 -20 -83 -7q-40 13 -59 51q-21 39 -5 84q14 39 48 55q156 72 254 100l60 17q32 8 49 11h2q48 8 69 7q40 -1 70 -14q22 -9 36 -18q11 -8 31 -28q12 -12 28 -56l3 -7q1 -2 2 -6.5t1 -5.5l2 -12q5 -37 3 -57q-8 -78 -35 -147q-18 -48 -53 -118q-32 -66 -78 -146
q-47 -84 -59 -108l-1 1l-5 -11q-2 -5 -6.5 -14.5t-8.5 -17.5t-7 -15q-15 -34 3 -66q19 -32 56 -37q45 -5 134 -3q7 0 19 0.5t19 0.5q24 0 70 4q108 8 144 -4q23 -7 42 -28z" />
    <glyph glyph-name="backslash" unicode="\" horiz-adv-x="978" 
d="M133 1422q1 1 3 3.5t3 4.5q20 25 51 31q35 8 66 -12q28 -19 39 -57q27 -87 83 -259q8 -20 22.5 -60.5t21.5 -61.5q104 -286 213 -557q142 -354 215 -531q15 -37 6 -67q-10 -34 -45 -52q-30 -16 -67.5 -4.5t-51.5 44.5q-29 69 -142 349q-109 269 -226 574
q-108 280 -203 589q-9 32 12 66z" />
    <glyph glyph-name="underscore" unicode="_" horiz-adv-x="1073" 
d="M133 135q-19 30 -13 65q6 36 33 58q22 18 60 16q126 -8 329 -6t327 18q32 4 57 -18.5t28 -58.5t-18.5 -64.5t-53.5 -33.5q-264 -34 -698 -12l-1 1h-2q-29 5 -48 35z" />
    <glyph glyph-name="braceleft" unicode="{" horiz-adv-x="1038" 
d="M815 -19q49 -13 77.5 -45t12.5 -75q-11 -31 -40 -49t-63 -17q-11 0 -41.5 1t-45 1.5t-41.5 2.5t-44.5 5t-40 8t-42.5 12q-100 36 -164 128.5t-62 199.5q0 22 7.5 86t3 106t-28.5 75q-20 28 -68.5 58t-82 59.5t-33.5 69.5q0 36 26 64.5t70 59t62 51.5q62 69 47 202
q-3 23 -16.5 97.5t-14.5 115.5q-2 112 62.5 210t163.5 157t209 74q120 16 170 -45q19 -23 21 -51.5t-15 -52.5q-5 -7 -12 -12t-12 -8.5t-15 -6t-14.5 -4t-17 -2t-15.5 -0.5h-17h-16q-74 -1 -143 -33t-115.5 -91t-51.5 -130q-3 -43 14.5 -123.5t19.5 -92.5
q13 -100 -23.5 -198t-111.5 -164q-6 -5 -6 -13t7 -12q56 -34 93.5 -90t44.5 -120q4 -39 -6 -145.5t6 -145.5q10 -33 26 -56q17 -24 38.5 -37.5t47.5 -17.5t46.5 -4.5t53 1.5t49.5 2q18 0 41 -5z" />
    <glyph glyph-name="braceright" unicode="}" horiz-adv-x="1038" 
d="M223 1456q-49 13 -77 45t-12 75q11 31 39.5 48.5t62.5 16.5q11 0 49.5 -1t55.5 -2t47.5 -4t55 -8.5t47.5 -13.5q100 -36 164 -128.5t62 -199.5q0 -22 -7.5 -86.5t-2.5 -106t29 -74.5q20 -28 68.5 -58t81.5 -60t33 -70q0 -36 -26 -64.5t-69.5 -58.5t-62.5 -51
q-62 -69 -47 -203q3 -25 17 -98t15 -114q1 -85 -36 -163t-99.5 -134.5t-140.5 -94.5t-160 -49q-119 -16 -169 45q-19 23 -21.5 51.5t14.5 52.5q5 7 12 12t12 8.5t15 6t14.5 4t17 2t15.5 0.5h17h16q74 1 143 33t115.5 91t51.5 130q3 43 -14.5 123.5t-19.5 92.5
q-13 100 23.5 197.5t111.5 163.5q6 5 6 13t-7 12q-56 34 -93 90.5t-44 120.5q-4 39 6 145.5t-6 145.5q-9 31 -27 56q-17 24 -38.5 37.5t-47.5 17.5t-46.5 4.5t-53 -1.5t-49.5 -2q-18 0 -41 5z" />
    <glyph glyph-name="nonbreakingspace" unicode="&#xa0;" horiz-adv-x="667" 
 />
    <glyph glyph-name="sterling" unicode="&#xa3;" horiz-adv-x="1196" 
d="M1067 173q12 -25 10.5 -53.5t-15.5 -48.5q-23 -34 -73 -30q-346 31 -674 -39q-43 -9 -74.5 14t-40.5 61q-8 35 7.5 65t56.5 41q55 14 89.5 47t46 72.5t15.5 84.5t-3 83l-1 11l-203 -12q-43 -2 -65 22t-24 58q-2 41 21.5 72.5t68.5 34.5l169 10l-5 21q-38 169 -34 221
q11 150 115 210q58 33 134.5 30.5t153.5 -40.5q45 -22 47 -64q3 -56 -47 -90q-44 -31 -96 -6t-83 1q-56 -44 -4 -263l2 -9l246 15q42 3 64.5 -22t24.5 -59q2 -40 -22 -71.5t-69 -34.5l-210 -13l1 -12q9 -101 -9 -180q-6 -27 -17 -56l-6 -16l17 1q215 17 407 0q55 -4 79 -56z
" />
    <glyph glyph-name="softhyphen" unicode="&#xad;" 
 />
    <glyph glyph-name="multiply" unicode="&#xd7;" horiz-adv-x="989" 
d="M838 494q29 -23 31 -62.5t-25 -70.5t-67.5 -37t-69.5 17q-106 82 -213 183q-117 -114 -213 -200q-1 0 -1 -1l-2 -1q-26 -20 -67 -10q-40 10 -63 43q-25 34 -20 73q4 32 36 61q80 73 186 177q-94 95 -216 230l-2 2q-21 27 -11 67q10 41 43 64q33 24 74 19q33 -4 61 -35
q74 -82 193 -203q119 126 191 219q23 29 62 31t70 -25t37 -68t-17 -70q-86 -111 -198 -229q112 -106 201 -174z" />
    <glyph glyph-name="divide" unicode="&#xf7;" horiz-adv-x="1191" 
d="M592 841q-50 0 -86 39t-34 89q1 51 38.5 85.5t89.5 34.5q50 0 86 -39t34 -89q-1 -51 -38.5 -85.5t-89.5 -34.5zM975 764q37 4 66 -22t32 -67t-21.5 -74t-61.5 -38q-302 -39 -797 -13h-4q-31 4 -54 40q-21 34 -15 75t38 66q25 20 68 18q144 -9 375 -6t374 21zM600 465
q50 0 86 -39t34 -89q-1 -51 -38.5 -85.5t-89.5 -34.5q-50 0 -86 39.5t-34 89.5q1 51 38.5 85t89.5 34z" />
    <glyph glyph-name="quoteleft" unicode="&#x2018;" horiz-adv-x="505" 
d="M268 1494q3 -3 7 -9t7 -9q12 -19 14 -45q0 -1 0.5 -2.5t0.5 -2.5q2 -12 7.5 -36.5t8.5 -36.5q3 -15 20 -70q15 -53 50 -144q13 -33 -5.5 -66.5t-52.5 -44.5q-35 -11 -68 6q-27 14 -43 52q-34 87 -51 145q-17 59 -20 73q-23 117 -24 121q-5 33 23 63q24 27 63 29h3
q35 0 60 -23zM300 1412q0 -2 0.5 -4t0.5 -4q0 2 -0.5 4t-0.5 4z" />
    <glyph glyph-name="quoteright" unicode="&#x2019;" horiz-adv-x="505" 
d="M239 1492q25 23 60 23h3q38 -2 62 -29q28 -30 23 -63q-3 -22 -23 -121q-1 -3 -21 -73q-19 -67 -50 -145q-15 -38 -44 -52q-32 -17 -67 -6q-34 11 -52.5 44.5t-5.5 66.5q35 91 50 144q17 55 20 70q2 12 7 36.5t8 36.5q0 1 0.5 2.5t0.5 2.5q2 26 14 45zM207 1410
q0 -2 -0.5 -4.5t-0.5 -3.5q0 1 0.5 3.5t0.5 4.5z" />
    <glyph glyph-name="quotedblleft" unicode="&#x201c;" horiz-adv-x="819" 
d="M333 1342q15 -53 50 -144q13 -33 -5.5 -66.5t-52.5 -44.5q-35 -11 -68 6q-27 14 -43 52q-33 84 -51 146q-17 59 -20 73q-23 117 -24 121q-5 32 23 62q24 27 63 29h3q35 0 60 -23q3 -3 7 -8.5t7 -8.5q12 -19 14 -45q0 -1 0.5 -3t0.5 -3q2 -12 7.5 -36.5t8.5 -36.5
q3 -15 20 -70zM696 1198q13 -33 -5.5 -66.5t-52.5 -44.5q-35 -11 -67 6q-29 14 -44 52q-30 75 -50 146q-20 70 -21 73q-20 99 -23 121q-5 32 23 62q24 27 62 29h3q35 0 60 -23q2 -3 7 -8.5t8 -8.5q12 -19 14 -45q0 -1 0.5 -3t0.5 -3q3 -12 8 -36.5t7 -36.5q3 -15 20 -70
q15 -53 50 -144z" />
    <glyph glyph-name="quotedblright" unicode="&#x201d;" horiz-adv-x="819" 
d="M678 1545q28 -30 23 -62q-1 -4 -24 -121q-3 -14 -20 -73q-18 -62 -51 -146q-16 -38 -43 -52q-33 -17 -68 -6q-34 11 -52.5 44.5t-5.5 66.5q35 91 50 144q17 55 20 70q2 12 8 36.5t8 36.5q0 1 0.5 3t0.5 3q2 26 14 45q2 3 7 8.5t7 8.5q25 23 60 23h3q39 -2 63 -29z
M302 1574q38 -2 62 -29q28 -30 23 -62q-3 -22 -23 -121q-1 -3 -21 -73q-20 -71 -50 -146q-15 -38 -44 -52q-32 -17 -67 -6q-34 11 -52.5 44.5t-5.5 66.5q35 91 50 144q17 55 20 70q2 12 7 36.5t8 36.5q0 1 0.5 3t0.5 3q2 26 14 45q2 3 7 8.5t8 8.5q25 23 60 23h3z" />
    <glyph glyph-name="Euro" unicode="&#x20ac;" horiz-adv-x="1224" 
d="M941 346q34 41 86 31.5t70 -49t-12 -84.5q-64 -76 -146.5 -124t-177.5 -59.5t-186 33.5q-66 32 -114.5 97t-74 136.5t-39.5 155.5l-150 13q-32 3 -53 23t-24 46.5t4.5 51.5t31.5 41.5t56 13.5l124 -10q2 38 4 56l-51 -3q-53 -4 -83.5 38t-16.5 87t67 49q41 3 124 5
q70 181 230 230q57 18 120.5 23t126.5 -4.5t112.5 -45.5t68.5 -95q10 -32 -3.5 -57t-44.5 -37q-19 -10 -38 -5.5t-28 11t-24.5 19t-27.5 18.5q-41 20 -99 22t-113.5 -18.5t-83.5 -59.5q0 -1 -2 -3t-2 -3q78 -5 179 -22q53 -9 71 -56.5t-7.5 -88t-78.5 -31.5q-118 19 -221 25
q-4 -31 -4 -69l220 -18q32 -3 53 -23t24 -46.5t-4.5 -52t-31.5 -42t-56 -13.5l-186 16q35 -160 116 -207q49 -29 104.5 -22t105 35.5t85.5 71.5z" />
    <glyph glyph-name="minus" unicode="&#x2212;" horiz-adv-x="1073" 
d="M869 748q32 4 57 -18.5t28 -58.5t-18.5 -64.5t-53.5 -33.5q-264 -34 -698 -12l-1 1h-2q-29 5 -48 35t-13 65q6 36 33 58q22 18 60 16q126 -8 329 -6t327 18z" />
    <glyph glyph-name="D.alt1" unicode="&#xf000;" horiz-adv-x="1306" 
d="M1186 745q9 -130 -59 -261t-180 -230t-252.5 -167t-275.5 -86q-12 -2 -33 0q-43 0 -75 34t-32 77q0 44 -4.5 126.5t-5.5 114.5q-1 35 -2.5 107t-2.5 107q-1 71 -4 213.5t-5 213.5l-19 2q-59 5 -90 47.5t-27 95.5q3 42 29 72.5t76 30.5q1 0 4.5 -0.5t5.5 -0.5
q299 -21 465 -61q466 -112 487 -435zM516 307q0 -8 7 -13t15 -3q35 10 77 26.5t103.5 52.5t109.5 79.5t81.5 111t31.5 142.5q-1 57 -35.5 104t-80.5 74t-108 47.5t-103 28t-81 12.5q-13 1 -22 -7t-9 -21z" />
    <glyph glyph-name="B.alt1" unicode="&#xf002;" horiz-adv-x="1445" 
d="M1223 716q85 -88 100.5 -203.5t-44.5 -207.5q-19 -30 -46 -55t-53 -43t-65 -34t-65.5 -25t-73.5 -20t-71 -15.5t-73 -13.5l-4 -1q-476 -82 -613 -97q-45 -5 -70 19q-20 20 -25 58q-6 50 23 92.5t83 48.5l8 1q32 3 53 6.5t44 10t34 18.5t10 28q0 1 -43 728q-2 18 -13 26
q-8 7 -23 7h-6q-47 -8 -86 18.5t-54 68.5q-27 72 47 104q107 46 220 73.5t228 35.5t218 -22.5t169 -99.5q63 -65 72 -160.5t-39 -180.5l-29 -50l50 -21q80 -34 137 -94zM557 1054q8 -48 23 -153q3 -25 24 -39q13 -10 32 -10q5 0 13 2q86 19 123 41l11 7q24 14 34.5 20.5
t27 22.5t25.5 33q22 43 5 79q-18 41 -79 51q-97 15 -184 11q-28 -2 -43 -21q-17 -20 -12 -44zM1103 455q3 11 3 21q3 55 -53 103q-56 47 -145 62q-58 10 -159 8l-16 -1h-23h-53q-26 -1 -44.5 -21t-18.5 -46v-228q0 -31 23 -51q19 -16 43 -16q8 0 12 1q151 27 261 52
q28 6 45.5 11.5t47 18.5t49.5 35t28 51z" />
    <glyph glyph-name="I.alt1" unicode="&#xf006;" horiz-adv-x="544" 
d="M257 1041q-52 0 -88 29.5t-44.5 71.5t0 84t44.5 71.5t88 29.5t88 -29.5t44.5 -71.5t0 -84t-44.5 -71.5t-88 -29.5zM426 149q5 -94 -64 -132.5t-142.5 0.5t-78.5 132q-17 317 -6 633q2 56 33 95t73 48t84 0t70 -47.5t26 -95.5q-11 -328 5 -633z" />
    <glyph glyph-name="N.alt1" unicode="&#xf008;" horiz-adv-x="1335" 
d="M1217 1101q0 -81 -37 -725q-14 -261 -14 -274q-1 -40 -25.5 -70t-66.5 -32q-14 -1 -33 5q-23 6 -41 24l-2 2q-155 125 -278 287t-241 364q-11 18 -31 18q-1 0 -3.5 -0.5t-3.5 -0.5q-24 -5 -29 -30l-15 -90q-11 -66 -33 -199t-33 -199q-10 -57 -56 -75q-28 -10 -60.5 -3.5
t-57.5 26.5q-47 39 -36 102q92 557 145 885q6 38 31 60t55 27t60.5 -6.5t49.5 -44.5q13 -22 36 -64.5t32 -58.5q81 -145 123.5 -219t119 -191t148.5 -204q16 -20 39 -12q24 8 26 33l42 664q2 16 6 33v4q2 34 26 49t55 14q41 -2 71.5 -28t30.5 -71z" />
    <glyph glyph-name="S.alt1" unicode="&#xf009;" horiz-adv-x="1165" 
d="M1033 260q-22 -61 -72.5 -111.5t-119.5 -80.5q-252 -109 -642 -44q-57 9 -74 55q-11 28 -3.5 62t29.5 61q37 45 92 45q6 0 22 -2q227 -37 417 11q4 2 12 3q24 6 36.5 9.5t34.5 12.5t35 21.5t17 28.5q6 22 -5.5 42t-36 34t-44 21.5t-41.5 14.5q-66 19 -192 27
q-41 3 -61 4.5t-56 6.5t-55.5 11.5t-47 18.5t-45.5 28t-37 40t-33 55q-54 118 3 241t171 183q120 64 288 70.5t313 -46.5q67 -25 77 -90q6 -34 -4.5 -67.5t-34.5 -53.5q-38 -32 -96 -12q-92 33 -192 37t-188 -21q-70 -21 -103 -51t-28 -68q3 -20 13 -33.5t26.5 -19.5t28 -8
t29.5 -3q14 0 21 -1q29 -4 89 -10q51 -5 77 -8t71.5 -11t72 -16.5t63 -24t61 -35.5t50 -49.5t44.5 -66.5q55 -105 18 -210z" />
  </font>
</defs>
</svg>
